<?xml version="1.0" standalone="no"?>
<!DOCTYPE svg PUBLIC "-//W3C//DTD SVG 1.1//EN"
  "http://www.w3.org/Graphics/SVG/1.1/DTD/svg11.dtd">
<svg width="37mm" height="37mm" viewBox="-20 -16 37 37" xmlns="http://www.w3.org/2000/svg" version="1.1">
	<title>svgOutput</title>
	<desc>made with tinkercad</desc>
<path d="M 16 20 L 12.503000259399414 20 L 11.998000144958496 20 L -15.503000259399414 20 L -18.003000259399414 20 L -19 20 L -19 -15 L -18.003000259399414 -15 L -15.503000259399414 -15 L -14.998000144958496 -15 L 11.998000144958496 -15 L 12.503000259399414 -15 L 15.003000259399414 -15 L 16 -15 L 16 -10.998000144958496 L 16 19.003000259399414 L 16 20 M -15.503000259399414 18.601999282836914 L -15.284000396728516 18.382999420166016 L -15.071000099182129 17.964000701904297 L -14.998000144958496 17.5 L -15.071000099182129 17.035999298095703 L -15.284000396728516 16.617000579833984 L -15.503000259399414 16.398000717163086 L -15.517000198364258 16.384000778198242 L -15.616999626159668 16.284000396728516 L -16.035999298095703 16.070999145507812 L -16.5 15.998000144958496 L -16.964000701904297 16.070999145507812 L -17.382999420166016 16.284000396728516 L -17.482999801635742 16.384000778198242 L -17.715999603271484 16.617000579833984 L -17.929000854492188 17.035999298095703 L -18.003000259399414 17.5 L -17.929000854492188 17.964000701904297 L -17.715999603271484 18.382999420166016 L -17.382999420166016 18.715999603271484 L -16.964000701904297 18.929000854492188 L -16.5 19.003000259399414 L -16.384000778198242 18.984500885009766 L -16.035999298095703 18.929000854492188 L -15.616999626159668 18.715999603271484 L -15.503000259399414 18.601999282836914 M 14.715999603271484 16.617000579833984 L 14.482999801635742 16.384000778198242 L 14.383000373840332 16.284000396728516 L 13.96399974822998 16.070999145507812 L 13.5 15.998000144958496 L 13.03600025177002 16.070999145507812 L 12.616999626159668 16.284000396728516 L 12.517000198364258 16.384000778198242 L 12.503000259399414 16.398000717163086 L 12.288000106811523 16.613000869750977 L 12.284000396728516 16.617000579833984 L 12.071000099182129 17.035999298095703 L 11.998000144958496 17.5 L 12.071000099182129 17.964000701904297 L 12.284000396728516 18.382999420166016 L 12.288000106811523 18.386999130249023 L 12.503000259399414 18.601999282836914 L 12.616999626159668 18.715999603271484 L 13.03600025177002 18.929000854492188 L 13.5 19.003000259399414 L 13.96399974822998 18.929000854492188 L 14.383000373840332 18.715999603271484 L 14.715999603271484 18.382999420166016 L 14.928999900817871 17.964000701904297 L 15.003000259399414 17.5 L 14.928999900817871 17.035999298095703 L 14.715999603271484 16.617000579833984 M -15.503000259399414 -11.39799976348877 L -15.284000396728516 -11.616999626159668 L -15.071000099182129 -12.03600025177002 L -15.031352996826172 -12.288000106811523 L -14.998000144958496 -12.5 L -15.071000099182129 -12.96399974822998 L -15.284000396728516 -13.383000373840332 L -15.503000259399414 -13.60200023651123 L -15.616999626159668 -13.715999603271484 L -16.035999298095703 -13.928999900817871 L -16.5 -14.003000259399414 L -16.964000701904297 -13.928999900817871 L -17.382999420166016 -13.715999603271484 L -17.715999603271484 -13.383000373840332 L -17.929000854492188 -12.96399974822998 L -18.003000259399414 -12.5 L -17.96919059753418 -12.288000106811523 L -17.929000854492188 -12.03600025177002 L -17.715999603271484 -11.616999626159668 L -17.382999420166016 -11.284000396728516 L -16.964000701904297 -11.071000099182129 L -16.5 -10.998000144958496 L -16.035999298095703 -11.071000099182129 L -15.616999626159668 -11.284000396728516 L -15.503000259399414 -11.39799976348877 M 14.928999900817871 -12.03600025177002 L 14.969189643859863 -12.288000106811523 L 15.003000259399414 -12.5 L 14.928999900817871 -12.96399974822998 L 14.715999603271484 -13.383000373840332 L 14.383000373840332 -13.715999603271484 L 13.96399974822998 -13.928999900817871 L 13.5 -14.003000259399414 L 13.03600025177002 -13.928999900817871 L 12.616999626159668 -13.715999603271484 L 12.503000259399414 -13.60200023651123 L 12.284000396728516 -13.383000373840332 L 12.071000099182129 -12.96399974822998 L 11.998000144958496 -12.5 L 12.031352996826172 -12.288000106811523 L 12.071000099182129 -12.03600025177002 L 12.284000396728516 -11.616999626159668 L 12.503000259399414 -11.39799976348877 L 12.616999626159668 -11.284000396728516 L 13.03600025177002 -11.071000099182129 L 13.5 -10.998000144958496 L 13.96399974822998 -11.071000099182129 L 14.383000373840332 -11.284000396728516 L 14.715999603271484 -11.616999626159668 L 14.928999900817871 -12.03600025177002 z" fill="none" stroke="rgb(0,0,255)" stroke-width="0.01mm" />
</svg>