  0
SECTION
  2
HEADER
  9
$ACADVER
  1
AC1009
  9
$EXTMIN
 10
0.0
 20
0.0
 30
0.0
  9
$EXTMAX
 10
1000.0
 20
1000.0
 30
0.0
  9
$FILLMODE
 70
 0
  9
$SPLFRAME
 70
 1
  0
ENDSEC
  0
SECTION
  2
TABLES
  0
TABLE
  2
LAYER
 70
1
  0
LAYER
  2
0
 70
     0
 62
     7
  6
CONTINUOUS
  0
ENDTAB
  0
ENDSEC
  0
SECTION
  2
ENTITIES
  0
POLYLINE
  8
0
 62
     5
 66
     1
 10
0
 20
0
 30
0.0
 70
     1
 40
0.107136
 41
0.107136
  0
VERTEX
  8
0
 10
1.41732
 20
0.0410157
 30
0.0
 40
0.001488
 41
0.001488
  0
VERTEX
  8
0
 10
0.0393881
 20
0.0410157
 30
0.0
 40
0.001488
 41
0.001488
  0
VERTEX
  8
0
 10
0.0393881
 20
1.41894
 30
0.0
 40
0.001488
 41
0.001488
  0
VERTEX
  8
0
 10
1.41732
 20
1.41894
 30
0.0
 40
0.001488
 41
0.001488
  0
VERTEX
  8
0
 10
1.41732
 20
0.0410157
 30
0.0
 40
0.001488
 41
0.001488
  0
SEQEND
 8
0
  0
POLYLINE
  8
0
 62
     5
 66
     1
 10
0
 20
0
 30
0.0
 70
     1
 40
0.107136
 41
0.107136
  0
VERTEX
  8
0
 10
0.177029
 20
0.0960286
 30
0.0
 40
0.001488
 41
0.001488
  0
VERTEX
  8
0
 10
0.185656
 20
0.104655
 30
0.0
 40
0.001488
 41
0.001488
  0
VERTEX
  8
0
 10
0.194065
 20
0.121148
 30
0.0
 40
0.001488
 41
0.001488
  0
VERTEX
  8
0
 10
0.19694
 20
0.139432
 30
0.0
 40
0.001488
 41
0.001488
  0
VERTEX
  8
0
 10
0.194065
 20
0.157715
 30
0.0
 40
0.001488
 41
0.001488
  0
VERTEX
  8
0
 10
0.185656
 20
0.174208
 30
0.0
 40
0.001488
 41
0.001488
  0
VERTEX
  8
0
 10
0.172581
 20
0.187283
 30
0.0
 40
0.001488
 41
0.001488
  0
VERTEX
  8
0
 10
0.156088
 20
0.195692
 30
0.0
 40
0.001488
 41
0.001488
  0
VERTEX
  8
0
 10
0.137804
 20
0.198568
 30
0.0
 40
0.001488
 41
0.001488
  0
VERTEX
  8
0
 10
0.11952
 20
0.195692
 30
0.0
 40
0.001488
 41
0.001488
  0
VERTEX
  8
0
 10
0.103027
 20
0.187283
 30
0.0
 40
0.001488
 41
0.001488
  0
VERTEX
  8
0
 10
0.0991211
 20
0.183376
 30
0.0
 40
0.001488
 41
0.001488
  0
VERTEX
  8
0
 10
0.0898981
 20
0.174208
 30
0.0
 40
0.001488
 41
0.001488
  0
VERTEX
  8
0
 10
0.0815429
 20
0.157715
 30
0.0
 40
0.001488
 41
0.001488
  0
VERTEX
  8
0
 10
0.0786133
 20
0.139432
 30
0.0
 40
0.001488
 41
0.001488
  0
VERTEX
  8
0
 10
0.0815429
 20
0.121148
 30
0.0
 40
0.001488
 41
0.001488
  0
VERTEX
  8
0
 10
0.0898981
 20
0.104655
 30
0.0
 40
0.001488
 41
0.001488
  0
VERTEX
  8
0
 10
0.103027
 20
0.0915799
 30
0.0
 40
0.001488
 41
0.001488
  0
VERTEX
  8
0
 10
0.11952
 20
0.0831706
 30
0.0
 40
0.001488
 41
0.001488
  0
VERTEX
  8
0
 10
0.137804
 20
0.0802408
 30
0.0
 40
0.001488
 41
0.001488
  0
VERTEX
  8
0
 10
0.142361
 20
0.0810004
 30
0.0
 40
0.001488
 41
0.001488
  0
VERTEX
  8
0
 10
0.156088
 20
0.0831706
 30
0.0
 40
0.001488
 41
0.001488
  0
VERTEX
  8
0
 10
0.172581
 20
0.0915799
 30
0.0
 40
0.001488
 41
0.001488
  0
VERTEX
  8
0
 10
0.177029
 20
0.0960286
 30
0.0
 40
0.001488
 41
0.001488
  0
SEQEND
 8
0
  0
POLYLINE
  8
0
 62
     5
 66
     1
 10
0
 20
0
 30
0.0
 70
     1
 40
0.107136
 41
0.107136
  0
VERTEX
  8
0
 10
1.36675
 20
0.174208
 30
0.0
 40
0.001488
 41
0.001488
  0
VERTEX
  8
0
 10
1.35368
 20
0.187283
 30
0.0
 40
0.001488
 41
0.001488
  0
VERTEX
  8
0
 10
1.33718
 20
0.195692
 30
0.0
 40
0.001488
 41
0.001488
  0
VERTEX
  8
0
 10
1.3189
 20
0.198568
 30
0.0
 40
0.001488
 41
0.001488
  0
VERTEX
  8
0
 10
1.30062
 20
0.195692
 30
0.0
 40
0.001488
 41
0.001488
  0
VERTEX
  8
0
 10
1.28413
 20
0.187283
 30
0.0
 40
0.001488
 41
0.001488
  0
VERTEX
  8
0
 10
1.28022
 20
0.183376
 30
0.0
 40
0.001488
 41
0.001488
  0
VERTEX
  8
0
 10
1.27962
 20
0.182835
 30
0.0
 40
0.001488
 41
0.001488
  0
VERTEX
  8
0
 10
1.27116
 20
0.174371
 30
0.0
 40
0.001488
 41
0.001488
  0
VERTEX
  8
0
 10
1.27105
 20
0.174208
 30
0.0
 40
0.001488
 41
0.001488
  0
VERTEX
  8
0
 10
1.26264
 20
0.157715
 30
0.0
 40
0.001488
 41
0.001488
  0
VERTEX
  8
0
 10
1.25977
 20
0.139432
 30
0.0
 40
0.001488
 41
0.001488
  0
VERTEX
  8
0
 10
1.26264
 20
0.121148
 30
0.0
 40
0.001488
 41
0.001488
  0
VERTEX
  8
0
 10
1.27105
 20
0.104655
 30
0.0
 40
0.001488
 41
0.001488
  0
VERTEX
  8
0
 10
1.27116
 20
0.104492
 30
0.0
 40
0.001488
 41
0.001488
  0
VERTEX
  8
0
 10
1.27962
 20
0.0960286
 30
0.0
 40
0.001488
 41
0.001488
  0
VERTEX
  8
0
 10
1.28413
 20
0.0915799
 30
0.0
 40
0.001488
 41
0.001488
  0
VERTEX
  8
0
 10
1.30062
 20
0.0831706
 30
0.0
 40
0.001488
 41
0.001488
  0
VERTEX
  8
0
 10
1.3189
 20
0.0802408
 30
0.0
 40
0.001488
 41
0.001488
  0
VERTEX
  8
0
 10
1.33718
 20
0.0831706
 30
0.0
 40
0.001488
 41
0.001488
  0
VERTEX
  8
0
 10
1.35368
 20
0.0915799
 30
0.0
 40
0.001488
 41
0.001488
  0
VERTEX
  8
0
 10
1.36675
 20
0.104655
 30
0.0
 40
0.001488
 41
0.001488
  0
VERTEX
  8
0
 10
1.37516
 20
0.121148
 30
0.0
 40
0.001488
 41
0.001488
  0
VERTEX
  8
0
 10
1.37809
 20
0.139432
 30
0.0
 40
0.001488
 41
0.001488
  0
VERTEX
  8
0
 10
1.37516
 20
0.157715
 30
0.0
 40
0.001488
 41
0.001488
  0
VERTEX
  8
0
 10
1.36675
 20
0.174208
 30
0.0
 40
0.001488
 41
0.001488
  0
SEQEND
 8
0
  0
POLYLINE
  8
0
 62
     5
 66
     1
 10
0
 20
0
 30
0.0
 70
     1
 40
0.107136
 41
0.107136
  0
VERTEX
  8
0
 10
0.177029
 20
1.27713
 30
0.0
 40
0.001488
 41
0.001488
  0
VERTEX
  8
0
 10
0.185656
 20
1.28575
 30
0.0
 40
0.001488
 41
0.001488
  0
VERTEX
  8
0
 10
0.194065
 20
1.30225
 30
0.0
 40
0.001488
 41
0.001488
  0
VERTEX
  8
0
 10
0.195638
 20
1.31218
 30
0.0
 40
0.001488
 41
0.001488
  0
VERTEX
  8
0
 10
0.19694
 20
1.32053
 30
0.0
 40
0.001488
 41
0.001488
  0
VERTEX
  8
0
 10
0.194065
 20
1.33881
 30
0.0
 40
0.001488
 41
0.001488
  0
VERTEX
  8
0
 10
0.185656
 20
1.35531
 30
0.0
 40
0.001488
 41
0.001488
  0
VERTEX
  8
0
 10
0.177029
 20
1.36393
 30
0.0
 40
0.001488
 41
0.001488
  0
VERTEX
  8
0
 10
0.172581
 20
1.36843
 30
0.0
 40
0.001488
 41
0.001488
  0
VERTEX
  8
0
 10
0.156088
 20
1.37679
 30
0.0
 40
0.001488
 41
0.001488
  0
VERTEX
  8
0
 10
0.137804
 20
1.37972
 30
0.0
 40
0.001488
 41
0.001488
  0
VERTEX
  8
0
 10
0.11952
 20
1.37679
 30
0.0
 40
0.001488
 41
0.001488
  0
VERTEX
  8
0
 10
0.103027
 20
1.36843
 30
0.0
 40
0.001488
 41
0.001488
  0
VERTEX
  8
0
 10
0.0898981
 20
1.35531
 30
0.0
 40
0.001488
 41
0.001488
  0
VERTEX
  8
0
 10
0.0815429
 20
1.33881
 30
0.0
 40
0.001488
 41
0.001488
  0
VERTEX
  8
0
 10
0.0786133
 20
1.32053
 30
0.0
 40
0.001488
 41
0.001488
  0
VERTEX
  8
0
 10
0.0799696
 20
1.31218
 30
0.0
 40
0.001488
 41
0.001488
  0
VERTEX
  8
0
 10
0.0815429
 20
1.30225
 30
0.0
 40
0.001488
 41
0.001488
  0
VERTEX
  8
0
 10
0.0898981
 20
1.28575
 30
0.0
 40
0.001488
 41
0.001488
  0
VERTEX
  8
0
 10
0.103027
 20
1.27268
 30
0.0
 40
0.001488
 41
0.001488
  0
VERTEX
  8
0
 10
0.11952
 20
1.26427
 30
0.0
 40
0.001488
 41
0.001488
  0
VERTEX
  8
0
 10
0.137804
 20
1.26139
 30
0.0
 40
0.001488
 41
0.001488
  0
VERTEX
  8
0
 10
0.156088
 20
1.26427
 30
0.0
 40
0.001488
 41
0.001488
  0
VERTEX
  8
0
 10
0.172581
 20
1.27268
 30
0.0
 40
0.001488
 41
0.001488
  0
VERTEX
  8
0
 10
0.177029
 20
1.27713
 30
0.0
 40
0.001488
 41
0.001488
  0
SEQEND
 8
0
  0
POLYLINE
  8
0
 62
     5
 66
     1
 10
0
 20
0
 30
0.0
 70
     1
 40
0.107136
 41
0.107136
  0
VERTEX
  8
0
 10
1.37516
 20
1.30225
 30
0.0
 40
0.001488
 41
0.001488
  0
VERTEX
  8
0
 10
1.37674
 20
1.31218
 30
0.0
 40
0.001488
 41
0.001488
  0
VERTEX
  8
0
 10
1.37809
 20
1.32053
 30
0.0
 40
0.001488
 41
0.001488
  0
VERTEX
  8
0
 10
1.37516
 20
1.33881
 30
0.0
 40
0.001488
 41
0.001488
  0
VERTEX
  8
0
 10
1.36675
 20
1.35531
 30
0.0
 40
0.001488
 41
0.001488
  0
VERTEX
  8
0
 10
1.35368
 20
1.36843
 30
0.0
 40
0.001488
 41
0.001488
  0
VERTEX
  8
0
 10
1.33718
 20
1.37679
 30
0.0
 40
0.001488
 41
0.001488
  0
VERTEX
  8
0
 10
1.3189
 20
1.37972
 30
0.0
 40
0.001488
 41
0.001488
  0
VERTEX
  8
0
 10
1.30062
 20
1.37679
 30
0.0
 40
0.001488
 41
0.001488
  0
VERTEX
  8
0
 10
1.28413
 20
1.36843
 30
0.0
 40
0.001488
 41
0.001488
  0
VERTEX
  8
0
 10
1.27962
 20
1.36393
 30
0.0
 40
0.001488
 41
0.001488
  0
VERTEX
  8
0
 10
1.27105
 20
1.35531
 30
0.0
 40
0.001488
 41
0.001488
  0
VERTEX
  8
0
 10
1.26264
 20
1.33881
 30
0.0
 40
0.001488
 41
0.001488
  0
VERTEX
  8
0
 10
1.25977
 20
1.32053
 30
0.0
 40
0.001488
 41
0.001488
  0
VERTEX
  8
0
 10
1.26107
 20
1.31218
 30
0.0
 40
0.001488
 41
0.001488
  0
VERTEX
  8
0
 10
1.26264
 20
1.30225
 30
0.0
 40
0.001488
 41
0.001488
  0
VERTEX
  8
0
 10
1.27105
 20
1.28575
 30
0.0
 40
0.001488
 41
0.001488
  0
VERTEX
  8
0
 10
1.27962
 20
1.27713
 30
0.0
 40
0.001488
 41
0.001488
  0
VERTEX
  8
0
 10
1.28413
 20
1.27268
 30
0.0
 40
0.001488
 41
0.001488
  0
VERTEX
  8
0
 10
1.30062
 20
1.26427
 30
0.0
 40
0.001488
 41
0.001488
  0
VERTEX
  8
0
 10
1.3189
 20
1.26139
 30
0.0
 40
0.001488
 41
0.001488
  0
VERTEX
  8
0
 10
1.33718
 20
1.26427
 30
0.0
 40
0.001488
 41
0.001488
  0
VERTEX
  8
0
 10
1.35368
 20
1.27268
 30
0.0
 40
0.001488
 41
0.001488
  0
VERTEX
  8
0
 10
1.36675
 20
1.28575
 30
0.0
 40
0.001488
 41
0.001488
  0
VERTEX
  8
0
 10
1.37516
 20
1.30225
 30
0.0
 40
0.001488
 41
0.001488
  0
SEQEND
 8
0
  0
ENDSEC
  0
EOF
