<?xml version="1.0" standalone="no"?>
<!DOCTYPE svg PUBLIC "-//W3C//DTD SVG 1.1//EN"
  "http://www.w3.org/Graphics/SVG/1.1/DTD/svg11.dtd">
<svg width="114mm" height="164mm" viewBox="-98 -74 114 164" xmlns="http://www.w3.org/2000/svg" version="1.1">
	<title>svgOutput</title>
	<desc>made with tinkercad</desc>
<path d="M -97 -63.49800109863281 L -92.00299835205078 -63.49800109863281 L -87.99800109863281 -63.49800109863281 L -78.49800109863281 -63.49800109863281 L -78.49800109863281 -73 L -65.00299835205078 -73 L -61.99800109863281 -73 L -16.003000259399414 -73 L -12.998000144958496 -73 L -3.503000020980835 -73 L -3.503000020980835 -67.99800109863281 L -3.503000020980835 -63.49800109863281 L 6.498000144958496 -63.49800109863281 L 10.503000259399414 -63.49800109863281 L 15 -63.49800109863281 L 15 -56.49800109863281 L 15 -42.49800109863281 L 15 -9.998000144958496 L 15 76.50299835205078 L 15 79.49800109863281 L 6.498000144958496 79.49800109863281 L -3.503000020980835 79.49800109863281 L -3.503000020980835 89 L -16.003000259399414 89 L -65.00299835205078 89 L -78.49800109863281 89 L -78.49800109863281 79.49800109863281 L -92.00299835205078 79.49800109863281 L -97 79.49800109863281 L -97 -63.49800109863281 M 9.119000434875488 72.59600067138672 L 8.5 72.49800109863281 L 7.88100004196167 72.59600067138672 L 7.322999954223633 72.87999725341797 L 6.880000114440918 73.322998046875 L 6.673871040344238 73.72799682617188 L 6.5960001945495605 73.88099670410156 L 6.498000144958496 74.5 L 6.5960001945495605 75.11900329589844 L 6.880000114440918 75.677001953125 L 7.322999954223633 76.12000274658203 L 7.88100004196167 76.40399932861328 L 8.5 76.50299835205078 L 9.119000434875488 76.40399932861328 L 9.677000045776367 76.12000274658203 L 10.119999885559082 75.677001953125 L 10.404000282287598 75.11900329589844 L 10.503000259399414 74.5 L 10.404000282287598 73.88099670410156 L 10.326128959655762 73.72799682617188 L 10.119999885559082 73.322998046875 L 9.677000045776367 72.87999725341797 L 9.119000434875488 72.59600067138672 M 10.404000282287598 -43.88100051879883 L 10.503000259399414 -44.5 L 10.41407585144043 -45.055999755859375 L 10.404000282287598 -45.11899948120117 L 10.119999885559082 -45.676998138427734 L 9.677000045776367 -46.119998931884766 L 9.119000434875488 -46.40399932861328 L 8.5 -46.50299835205078 L 7.88100004196167 -46.40399932861328 L 7.322999954223633 -46.119998931884766 L 6.880000114440918 -45.676998138427734 L 6.5960001945495605 -45.11899948120117 L 6.586025714874268 -45.055999755859375 L 6.498000144958496 -44.5 L 6.5960001945495605 -43.88100051879883 L 6.880000114440918 -43.323001861572266 L 7.322999954223633 -42.880001068115234 L 7.88100004196167 -42.59600067138672 L 8.5 -42.49800109863281 L 9.119000434875488 -42.59600067138672 L 9.677000045776367 -42.880001068115234 L 10.119999885559082 -43.323001861572266 L 10.404000282287598 -43.88100051879883 M -14.96399974822998 -68.07099914550781 L -14.5 -67.99800109863281 L -14.03600025177002 -68.07099914550781 L -13.616999626159668 -68.28399658203125 L -13.284000396728516 -68.61699676513672 L -13.071000099182129 -69.03600311279297 L -12.998000144958496 -69.5 L -13.018767356872559 -69.63200378417969 L -13.071000099182129 -69.96399688720703 L -13.284000396728516 -70.38300323486328 L -13.616999626159668 -70.71600341796875 L -14.03600025177002 -70.92900085449219 L -14.5 -71.00299835205078 L -14.96399974822998 -70.92900085449219 L -15.383000373840332 -70.71600341796875 L -15.715999603271484 -70.38300323486328 L -15.928999900817871 -69.96399688720703 L -15.981947898864746 -69.63200378417969 L -16.003000259399414 -69.5 L -15.928999900817871 -69.03600311279297 L -15.715999603271484 -68.61699676513672 L -15.383000373840332 -68.28399658203125 L -14.96399974822998 -68.07099914550781 M -62.07099914550781 -69.03600311279297 L -61.99800109863281 -69.5 L -62.018768310546875 -69.63200378417969 L -62.07099914550781 -69.96399688720703 L -62.284000396728516 -70.38300323486328 L -62.617000579833984 -70.71600341796875 L -63.0359992980957 -70.92900085449219 L -63.5 -71.00299835205078 L -63.9640007019043 -70.92900085449219 L -64.38300323486328 -70.71600341796875 L -64.71600341796875 -70.38300323486328 L -64.92900085449219 -69.96399688720703 L -64.98194885253906 -69.63200378417969 L -65.00299835205078 -69.5 L -64.92900085449219 -69.03600311279297 L -64.71600341796875 -68.61699676513672 L -64.38300323486328 -68.28399658203125 L -63.9640007019043 -68.07099914550781 L -63.5 -67.99800109863281 L -63.0359992980957 -68.07099914550781 L -62.617000579833984 -68.28399658203125 L -62.284000396728516 -68.61699676513672 L -62.07099914550781 -69.03600311279297 M -62.07099914550781 -11.03600025177002 L -61.99800109863281 -11.5 L -62.07099914550781 -11.96399974822998 L -62.2357063293457 -12.288000106811523 L -62.284000396728516 -12.383000373840332 L -62.617000579833984 -12.715999603271484 L -63.0359992980957 -12.928999900817871 L -63.5 -13.003000259399414 L -63.9640007019043 -12.928999900817871 L -64.38300323486328 -12.715999603271484 L -64.71600341796875 -12.383000373840332 L -64.76428985595703 -12.288000106811523 L -64.92900085449219 -11.96399974822998 L -65.00299835205078 -11.5 L -64.92900085449219 -11.03600025177002 L -64.71600341796875 -10.616999626159668 L -64.38300323486328 -10.284000396728516 L -63.9640007019043 -10.071000099182129 L -63.5 -9.998000144958496 L -63.0359992980957 -10.071000099182129 L -62.617000579833984 -10.284000396728516 L -62.284000396728516 -10.616999626159668 L -62.07099914550781 -11.03600025177002 M -88.09600067138672 73.88099670410156 L -88.17387390136719 73.72799682617188 L -88.37999725341797 73.322998046875 L -88.822998046875 72.87999725341797 L -89.38099670410156 72.59600067138672 L -90 72.49800109863281 L -90.61900329589844 72.59600067138672 L -91.177001953125 72.87999725341797 L -91.62000274658203 73.322998046875 L -91.82612609863281 73.72799682617188 L -91.90399932861328 73.88099670410156 L -92.00299835205078 74.5 L -91.90399932861328 75.11900329589844 L -91.62000274658203 75.677001953125 L -91.177001953125 76.12000274658203 L -90.61900329589844 76.40399932861328 L -90 76.50299835205078 L -89.38099670410156 76.40399932861328 L -88.822998046875 76.12000274658203 L -88.37999725341797 75.677001953125 L -88.09600067138672 75.11900329589844 L -87.99800109863281 74.5 L -88.09600067138672 73.88099670410156 M 10.404000282287598 -57.88100051879883 L 10.503000259399414 -58.5 L 10.404000282287598 -59.11899948120117 L 10.119999885559082 -59.676998138427734 L 9.677000045776367 -60.119998931884766 L 9.119000434875488 -60.40399932861328 L 8.5 -60.50299835205078 L 7.88100004196167 -60.40399932861328 L 7.322999954223633 -60.119998931884766 L 6.880000114440918 -59.676998138427734 L 6.5960001945495605 -59.11899948120117 L 6.498000144958496 -58.5 L 6.5960001945495605 -57.88100051879883 L 6.869311809539795 -57.34400177001953 L 6.880000114440918 -57.323001861572266 L 7.322999954223633 -56.880001068115234 L 7.88100004196167 -56.59600067138672 L 8.5 -56.49800109863281 L 9.119000434875488 -56.59600067138672 L 9.677000045776367 -56.880001068115234 L 10.119999885559082 -57.323001861572266 L 10.130687713623047 -57.34400177001953 L 10.404000282287598 -57.88100051879883 M -88.37999725341797 -57.323001861572266 L -88.36930847167969 -57.34400177001953 L -88.09600067138672 -57.88100051879883 L -87.99800109863281 -58.5 L -88.09600067138672 -59.11899948120117 L -88.37999725341797 -59.676998138427734 L -88.822998046875 -60.119998931884766 L -89.38099670410156 -60.40399932861328 L -90 -60.50299835205078 L -90.61900329589844 -60.40399932861328 L -91.177001953125 -60.119998931884766 L -91.62000274658203 -59.676998138427734 L -91.90399932861328 -59.11899948120117 L -92.00299835205078 -58.5 L -91.90399932861328 -57.88100051879883 L -91.63069152832031 -57.34400177001953 L -91.62000274658203 -57.323001861572266 L -91.177001953125 -56.880001068115234 L -90.61900329589844 -56.59600067138672 L -90 -56.49800109863281 L -89.38099670410156 -56.59600067138672 L -88.822998046875 -56.880001068115234 L -88.37999725341797 -57.323001861572266 M -15.928999900817871 -11.96399974822998 L -16.003000259399414 -11.5 L -15.928999900817871 -11.03600025177002 L -15.715999603271484 -10.616999626159668 L -15.383000373840332 -10.284000396728516 L -14.96399974822998 -10.071000099182129 L -14.5 -9.998000144958496 L -14.03600025177002 -10.071000099182129 L -13.616999626159668 -10.284000396728516 L -13.284000396728516 -10.616999626159668 L -13.071000099182129 -11.03600025177002 L -12.998000144958496 -11.5 L -13.071000099182129 -11.96399974822998 L -13.235706329345703 -12.288000106811523 L -13.284000396728516 -12.383000373840332 L -13.616999626159668 -12.715999603271484 L -14.03600025177002 -12.928999900817871 L -14.5 -13.003000259399414 L -14.96399974822998 -12.928999900817871 L -15.383000373840332 -12.715999603271484 L -15.715999603271484 -12.383000373840332 L -15.764293670654297 -12.288000106811523 L -15.928999900817871 -11.96399974822998 M -91.91407775878906 -45.055999755859375 L -92.00299835205078 -44.5 L -91.90399932861328 -43.88100051879883 L -91.62000274658203 -43.323001861572266 L -91.177001953125 -42.880001068115234 L -90.61900329589844 -42.59600067138672 L -90 -42.49800109863281 L -89.38099670410156 -42.59600067138672 L -88.822998046875 -42.880001068115234 L -88.37999725341797 -43.323001861572266 L -88.09600067138672 -43.88100051879883 L -87.99800109863281 -44.5 L -88.08602905273438 -45.055999755859375 L -88.09600067138672 -45.11899948120117 L -88.37999725341797 -45.676998138427734 L -88.822998046875 -46.119998931884766 L -89.38099670410156 -46.40399932861328 L -90 -46.50299835205078 L -90.61900329589844 -46.40399932861328 L -91.177001953125 -46.119998931884766 L -91.62000274658203 -45.676998138427734 L -91.90399932861328 -45.11899948120117 L -91.91407775878906 -45.055999755859375 z" fill="none" stroke="rgb(0,0,255)" stroke-width="0.01mm" />
</svg>