<?xml version="1.0" standalone="no"?>
<!DOCTYPE svg PUBLIC "-//W3C//DTD SVG 1.1//EN"
  "http://www.w3.org/Graphics/SVG/1.1/DTD/svg11.dtd">
<svg width="113.80000305175781mm" height="163.8000030517578mm" viewBox="-97.80000305175781 -73.80000305175781 113.80000305175781 163.8000030517578" xmlns="http://www.w3.org/2000/svg" version="1.1">
	<title>svgOutput</title>
	<desc>made with tinkercad</desc>
<path d="M -78.2979965209961 89 L -78.2979965209961 79.49800109863281 L -87.90299987792969 79.49800109863281 L -96.80000305175781 79.49800109863281 L -96.80000305175781 -63.29800033569336 L -87.90299987792969 -63.29800033569336 L -83.89800262451172 -63.29800033569336 L -78.2979965209961 -63.29800033569336 L -78.2979965209961 -72.80000305175781 L -65.00299835205078 -72.80000305175781 L -61.99800109863281 -72.80000305175781 L -16.003000259399414 -72.80000305175781 L -12.998000144958496 -72.80000305175781 L -3.503000020980835 -72.80000305175781 L -3.503000020980835 -65.7979965209961 L -3.503000020980835 -63.29800033569336 L 2.0969998836517334 -63.29800033569336 L 6.103000164031982 -63.29800033569336 L 15 -63.29800033569336 L 15 -56.49800109863281 L 15 -42.49800109863281 L 15 76.50299835205078 L 15 79.49800109863281 L 2.0969998836517334 79.49800109863281 L -3.503000020980835 79.49800109863281 L -3.503000020980835 89 L -16.003000259399414 89 L -65.00299835205078 89 L -78.2979965209961 89 M -14.96399974822998 -7.870999813079834 L -14.5 -7.797999858856201 L -14.03600025177002 -7.870999813079834 L -13.616999626159668 -8.083999633789062 L -13.508999824523926 -8.192000389099121 L -13.284000396728516 -8.416999816894531 L -13.071000099182129 -8.836000442504883 L -12.998000144958496 -9.300000190734863 L -13.071000099182129 -9.763999938964844 L -13.284000396728516 -10.182999610900879 L -13.616999626159668 -10.515999794006348 L -14.03600025177002 -10.729000091552734 L -14.336000442504883 -10.77684497833252 L -14.5 -10.803000450134277 L -14.96399974822998 -10.729000091552734 L -15.383000373840332 -10.515999794006348 L -15.715999603271484 -10.182999610900879 L -15.928999900817871 -9.763999938964844 L -16.003000259399414 -9.300000190734863 L -15.928999900817871 -8.836000442504883 L -15.715999603271484 -8.416999816894531 L -15.491000175476074 -8.192000389099121 L -15.383000373840332 -8.083999633789062 L -14.96399974822998 -7.870999813079834 M 4.718999862670898 72.59600067138672 L 4.099999904632568 72.49800109863281 L 4.0960001945495605 72.4986343383789 L 3.4809999465942383 72.59600067138672 L 2.9230000972747803 72.87999725341797 L 2.4800000190734863 73.322998046875 L 2.196000099182129 73.88099670410156 L 2.0969998836517334 74.5 L 2.196000099182129 75.11900329589844 L 2.4800000190734863 75.677001953125 L 2.9230000972747803 76.12000274658203 L 3.4809999465942383 76.40399932861328 L 4.0960001945495605 76.50235748291016 L 4.099999904632568 76.50299835205078 L 4.718999862670898 76.40399932861328 L 5.2769999504089355 76.12000274658203 L 5.71999979019165 75.677001953125 L 6.004000186920166 75.11900329589844 L 6.103000164031982 74.5 L 6.004000186920166 73.88099670410156 L 5.71999979019165 73.322998046875 L 5.2769999504089355 72.87999725341797 L 4.718999862670898 72.59600067138672 M -85.28099822998047 -60.40399932861328 L -85.9000015258789 -60.50299835205078 L -86.51899719238281 -60.40399932861328 L -87.0770034790039 -60.119998931884766 L -87.5199966430664 -59.676998138427734 L -87.80400085449219 -59.11899948120117 L -87.90299987792969 -58.5 L -87.80400085449219 -57.88100051879883 L -87.53068542480469 -57.34400177001953 L -87.5199966430664 -57.323001861572266 L -87.0770034790039 -56.880001068115234 L -86.51899719238281 -56.59600067138672 L -85.9000015258789 -56.49800109863281 L -85.28099822998047 -56.59600067138672 L -84.7229995727539 -56.880001068115234 L -84.27999877929688 -57.323001861572266 L -84.2693099975586 -57.34400177001953 L -83.99600219726562 -57.88100051879883 L -83.89800262451172 -58.5 L -83.99600219726562 -59.11899948120117 L -84.27999877929688 -59.676998138427734 L -84.7229995727539 -60.119998931884766 L -85.28099822998047 -60.40399932861328 M 4.718999862670898 -46.40399932861328 L 4.099999904632568 -46.50299835205078 L 4.0960001945495605 -46.50236129760742 L 3.4809999465942383 -46.40399932861328 L 2.9230000972747803 -46.119998931884766 L 2.4800000190734863 -45.676998138427734 L 2.196000099182129 -45.11899948120117 L 2.0969998836517334 -44.5 L 2.196000099182129 -43.88100051879883 L 2.4800000190734863 -43.323001861572266 L 2.9230000972747803 -42.880001068115234 L 3.4809999465942383 -42.59600067138672 L 4.0960001945495605 -42.498634338378906 L 4.099999904632568 -42.49800109863281 L 4.718999862670898 -42.59600067138672 L 5.2769999504089355 -42.880001068115234 L 5.71999979019165 -43.323001861572266 L 6.004000186920166 -43.88100051879883 L 6.103000164031982 -44.5 L 6.004000186920166 -45.11899948120117 L 5.71999979019165 -45.676998138427734 L 5.2769999504089355 -46.119998931884766 L 4.718999862670898 -46.40399932861328 M -62.617000579833984 -8.083999633789062 L -62.50899887084961 -8.192000389099121 L -62.284000396728516 -8.416999816894531 L -62.07099914550781 -8.836000442504883 L -61.99800109863281 -9.300000190734863 L -62.07099914550781 -9.763999938964844 L -62.284000396728516 -10.182999610900879 L -62.617000579833984 -10.515999794006348 L -63.0359992980957 -10.729000091552734 L -63.487998962402344 -10.80108642578125 L -63.5 -10.803000450134277 L -63.9640007019043 -10.729000091552734 L -64.38300323486328 -10.515999794006348 L -64.71600341796875 -10.182999610900879 L -64.92900085449219 -9.763999938964844 L -65.00299835205078 -9.300000190734863 L -64.92900085449219 -8.836000442504883 L -64.71600341796875 -8.416999816894531 L -64.49099731445312 -8.192000389099121 L -64.38300323486328 -8.083999633789062 L -63.9640007019043 -7.870999813079834 L -63.5 -7.797999858856201 L -63.0359992980957 -7.870999813079834 L -62.617000579833984 -8.083999633789062 M 4.718999862670898 -60.40399932861328 L 4.099999904632568 -60.50299835205078 L 4.0960001945495605 -60.50236129760742 L 3.4809999465942383 -60.40399932861328 L 2.9230000972747803 -60.119998931884766 L 2.4800000190734863 -59.676998138427734 L 2.196000099182129 -59.11899948120117 L 2.0969998836517334 -58.5 L 2.196000099182129 -57.88100051879883 L 2.4800000190734863 -57.323001861572266 L 2.9230000972747803 -56.880001068115234 L 3.4809999465942383 -56.59600067138672 L 4.0960001945495605 -56.498634338378906 L 4.099999904632568 -56.49800109863281 L 4.718999862670898 -56.59600067138672 L 5.2769999504089355 -56.880001068115234 L 5.71999979019165 -57.323001861572266 L 6.004000186920166 -57.88100051879883 L 6.103000164031982 -58.5 L 6.004000186920166 -59.11899948120117 L 5.71999979019165 -59.676998138427734 L 5.2769999504089355 -60.119998931884766 L 4.718999862670898 -60.40399932861328 M -86.51899719238281 76.40399932861328 L -85.9000015258789 76.50299835205078 L -85.28099822998047 76.40399932861328 L -84.7229995727539 76.12000274658203 L -84.27999877929688 75.677001953125 L -83.99600219726562 75.11900329589844 L -83.89800262451172 74.5 L -83.99600219726562 73.88099670410156 L -84.07386779785156 73.72799682617188 L -84.27999877929688 73.322998046875 L -84.7229995727539 72.87999725341797 L -85.28099822998047 72.59600067138672 L -85.9000015258789 72.49800109863281 L -86.51899719238281 72.59600067138672 L -87.0770034790039 72.87999725341797 L -87.5199966430664 73.322998046875 L -87.72612762451172 73.72799682617188 L -87.80400085449219 73.88099670410156 L -87.90299987792969 74.5 L -87.80400085449219 75.11900329589844 L -87.5199966430664 75.677001953125 L -87.0770034790039 76.12000274658203 L -86.51899719238281 76.40399932861328 M -13.071000099182129 -66.83599853515625 L -12.998000144958496 -67.30000305175781 L -13.042680740356445 -67.58399963378906 L -13.071000099182129 -67.76399993896484 L -13.284000396728516 -68.18299865722656 L -13.616999626159668 -68.51599884033203 L -14.03600025177002 -68.72899627685547 L -14.5 -68.8030014038086 L -14.96399974822998 -68.72899627685547 L -15.383000373840332 -68.51599884033203 L -15.715999603271484 -68.18299865722656 L -15.928999900817871 -67.76399993896484 L -15.957706451416016 -67.58399963378906 L -16.003000259399414 -67.30000305175781 L -15.928999900817871 -66.83599853515625 L -15.715999603271484 -66.41699981689453 L -15.383000373840332 -66.08399963378906 L -14.96399974822998 -65.87100219726562 L -14.5 -65.7979965209961 L -14.03600025177002 -65.87100219726562 L -13.616999626159668 -66.08399963378906 L -13.284000396728516 -66.41699981689453 L -13.071000099182129 -66.83599853515625 M -85.28099822998047 -46.40399932861328 L -85.9000015258789 -46.50299835205078 L -86.51899719238281 -46.40399932861328 L -87.0770034790039 -46.119998931884766 L -87.5199966430664 -45.676998138427734 L -87.80400085449219 -45.11899948120117 L -87.81407928466797 -45.055999755859375 L -87.90299987792969 -44.5 L -87.80400085449219 -43.88100051879883 L -87.5199966430664 -43.323001861572266 L -87.0770034790039 -42.880001068115234 L -86.51899719238281 -42.59600067138672 L -85.9000015258789 -42.49800109863281 L -85.28099822998047 -42.59600067138672 L -84.7229995727539 -42.880001068115234 L -84.27999877929688 -43.323001861572266 L -83.99600219726562 -43.88100051879883 L -83.89800262451172 -44.5 L -83.98602294921875 -45.055999755859375 L -83.99600219726562 -45.11899948120117 L -84.27999877929688 -45.676998138427734 L -84.7229995727539 -46.119998931884766 L -85.28099822998047 -46.40399932861328 M -64.95771026611328 -67.58399963378906 L -65.00299835205078 -67.30000305175781 L -64.92900085449219 -66.83599853515625 L -64.71600341796875 -66.41699981689453 L -64.38300323486328 -66.08399963378906 L -63.9640007019043 -65.87100219726562 L -63.5 -65.7979965209961 L -63.0359992980957 -65.87100219726562 L -62.617000579833984 -66.08399963378906 L -62.284000396728516 -66.41699981689453 L -62.07099914550781 -66.83599853515625 L -61.99800109863281 -67.30000305175781 L -62.04268264770508 -67.58399963378906 L -62.07099914550781 -67.76399993896484 L -62.284000396728516 -68.18299865722656 L -62.617000579833984 -68.51599884033203 L -63.0359992980957 -68.72899627685547 L -63.5 -68.8030014038086 L -63.9640007019043 -68.72899627685547 L -64.38300323486328 -68.51599884033203 L -64.71600341796875 -68.18299865722656 L -64.92900085449219 -67.76399993896484 L -64.95771026611328 -67.58399963378906 z" fill="none" stroke="rgb(0,0,255)" stroke-width="0.01mm" />
</svg>