  0
SECTION
  2
HEADER
  9
$ACADVER
  1
AC1009
  9
$EXTMIN
 10
0.0
 20
0.0
 30
0.0
  9
$EXTMAX
 10
1000.0
 20
1000.0
 30
0.0
  9
$FILLMODE
 70
 0
  9
$SPLFRAME
 70
 1
  0
ENDSEC
  0
SECTION
  2
TABLES
  0
TABLE
  2
LAYER
 70
1
  0
LAYER
  2
0
 70
     0
 62
     7
  6
CONTINUOUS
  0
ENDTAB
  0
ENDSEC
  0
SECTION
  2
ENTITIES
  0
POLYLINE
  8
0
 62
     5
 66
     1
 10
0
 20
0
 30
0.0
 70
     1
 40
0.107136
 41
0.107136
  0
VERTEX
  8
0
 10
0.767796
 20
0.0468207
 30
0.0
 40
0.001488
 41
0.001488
  0
VERTEX
  8
0
 10
0.767796
 20
0.420899
 30
0.0
 40
0.001488
 41
0.001488
  0
VERTEX
  8
0
 10
0.0393881
 20
0.420899
 30
0.0
 40
0.001488
 41
0.001488
  0
VERTEX
  8
0
 10
0.0393881
 20
6.03097
 30
0.0
 40
0.001488
 41
0.001488
  0
VERTEX
  8
0
 10
0.767796
 20
6.03097
 30
0.0
 40
0.001488
 41
0.001488
  0
VERTEX
  8
0
 10
0.767796
 20
6.40506
 30
0.0
 40
0.001488
 41
0.001488
  0
VERTEX
  8
0
 10
3.71246
 20
6.40506
 30
0.0
 40
0.001488
 41
0.001488
  0
VERTEX
  8
0
 10
3.71246
 20
6.03097
 30
0.0
 40
0.001488
 41
0.001488
  0
VERTEX
  8
0
 10
4.44092
 20
6.03097
 30
0.0
 40
0.001488
 41
0.001488
  0
VERTEX
  8
0
 10
4.44092
 20
0.420899
 30
0.0
 40
0.001488
 41
0.001488
  0
VERTEX
  8
0
 10
3.71246
 20
0.420899
 30
0.0
 40
0.001488
 41
0.001488
  0
VERTEX
  8
0
 10
3.71246
 20
0.0468207
 30
0.0
 40
0.001488
 41
0.001488
  0
VERTEX
  8
0
 10
0.767796
 20
0.0468207
 30
0.0
 40
0.001488
 41
0.001488
  0
SEQEND
 8
0
  0
POLYLINE
  8
0
 62
     5
 66
     1
 10
0
 20
0
 30
0.0
 70
     1
 40
0.107136
 41
0.107136
  0
VERTEX
  8
0
 10
3.26129
 20
3.86062
 30
0.0
 40
0.001488
 41
0.001488
  0
VERTEX
  8
0
 10
3.27951
 20
3.85775
 30
0.0
 40
0.001488
 41
0.001488
  0
VERTEX
  8
0
 10
3.29779
 20
3.86062
 30
0.0
 40
0.001488
 41
0.001488
  0
VERTEX
  8
0
 10
3.31429
 20
3.86903
 30
0.0
 40
0.001488
 41
0.001488
  0
VERTEX
  8
0
 10
3.31853
 20
3.87326
 30
0.0
 40
0.001488
 41
0.001488
  0
VERTEX
  8
0
 10
3.32742
 20
3.88211
 30
0.0
 40
0.001488
 41
0.001488
  0
VERTEX
  8
0
 10
3.33578
 20
3.8986
 30
0.0
 40
0.001488
 41
0.001488
  0
VERTEX
  8
0
 10
3.33865
 20
3.91689
 30
0.0
 40
0.001488
 41
0.001488
  0
VERTEX
  8
0
 10
3.33578
 20
3.93517
 30
0.0
 40
0.001488
 41
0.001488
  0
VERTEX
  8
0
 10
3.32742
 20
3.95167
 30
0.0
 40
0.001488
 41
0.001488
  0
VERTEX
  8
0
 10
3.31429
 20
3.96474
 30
0.0
 40
0.001488
 41
0.001488
  0
VERTEX
  8
0
 10
3.29779
 20
3.97314
 30
0.0
 40
0.001488
 41
0.001488
  0
VERTEX
  8
0
 10
3.28597
 20
3.97504
 30
0.0
 40
0.001488
 41
0.001488
  0
VERTEX
  8
0
 10
3.27951
 20
3.97607
 30
0.0
 40
0.001488
 41
0.001488
  0
VERTEX
  8
0
 10
3.26129
 20
3.97314
 30
0.0
 40
0.001488
 41
0.001488
  0
VERTEX
  8
0
 10
3.24474
 20
3.96474
 30
0.0
 40
0.001488
 41
0.001488
  0
VERTEX
  8
0
 10
3.23167
 20
3.95167
 30
0.0
 40
0.001488
 41
0.001488
  0
VERTEX
  8
0
 10
3.22325
 20
3.93517
 30
0.0
 40
0.001488
 41
0.001488
  0
VERTEX
  8
0
 10
3.22038
 20
3.91689
 30
0.0
 40
0.001488
 41
0.001488
  0
VERTEX
  8
0
 10
3.22325
 20
3.8986
 30
0.0
 40
0.001488
 41
0.001488
  0
VERTEX
  8
0
 10
3.23167
 20
3.88211
 30
0.0
 40
0.001488
 41
0.001488
  0
VERTEX
  8
0
 10
3.24474
 20
3.86903
 30
0.0
 40
0.001488
 41
0.001488
  0
VERTEX
  8
0
 10
3.26129
 20
3.86062
 30
0.0
 40
0.001488
 41
0.001488
  0
SEQEND
 8
0
  0
POLYLINE
  8
0
 62
     5
 66
     1
 10
0
 20
0
 30
0.0
 70
     1
 40
0.107136
 41
0.107136
  0
VERTEX
  8
0
 10
4.08675
 20
5.26654
 30
0.0
 40
0.001488
 41
0.001488
  0
VERTEX
  8
0
 10
4.09065
 20
5.2909
 30
0.0
 40
0.001488
 41
0.001488
  0
VERTEX
  8
0
 10
4.08675
 20
5.31526
 30
0.0
 40
0.001488
 41
0.001488
  0
VERTEX
  8
0
 10
4.07557
 20
5.33724
 30
0.0
 40
0.001488
 41
0.001488
  0
VERTEX
  8
0
 10
4.05817
 20
5.35465
 30
0.0
 40
0.001488
 41
0.001488
  0
VERTEX
  8
0
 10
4.03618
 20
5.36589
 30
0.0
 40
0.001488
 41
0.001488
  0
VERTEX
  8
0
 10
4.01183
 20
5.36974
 30
0.0
 40
0.001488
 41
0.001488
  0
VERTEX
  8
0
 10
4.01167
 20
5.36974
 30
0.0
 40
0.001488
 41
0.001488
  0
VERTEX
  8
0
 10
3.98747
 20
5.36589
 30
0.0
 40
0.001488
 41
0.001488
  0
VERTEX
  8
0
 10
3.9655
 20
5.35465
 30
0.0
 40
0.001488
 41
0.001488
  0
VERTEX
  8
0
 10
3.94803
 20
5.33724
 30
0.0
 40
0.001488
 41
0.001488
  0
VERTEX
  8
0
 10
3.93685
 20
5.31526
 30
0.0
 40
0.001488
 41
0.001488
  0
VERTEX
  8
0
 10
3.93294
 20
5.2909
 30
0.0
 40
0.001488
 41
0.001488
  0
VERTEX
  8
0
 10
3.93685
 20
5.26654
 30
0.0
 40
0.001488
 41
0.001488
  0
VERTEX
  8
0
 10
3.94803
 20
5.24457
 30
0.0
 40
0.001488
 41
0.001488
  0
VERTEX
  8
0
 10
3.9655
 20
5.22711
 30
0.0
 40
0.001488
 41
0.001488
  0
VERTEX
  8
0
 10
3.98747
 20
5.21593
 30
0.0
 40
0.001488
 41
0.001488
  0
VERTEX
  8
0
 10
4.01167
 20
5.21213
 30
0.0
 40
0.001488
 41
0.001488
  0
VERTEX
  8
0
 10
4.01183
 20
5.21208
 30
0.0
 40
0.001488
 41
0.001488
  0
VERTEX
  8
0
 10
4.03618
 20
5.21593
 30
0.0
 40
0.001488
 41
0.001488
  0
VERTEX
  8
0
 10
4.05817
 20
5.22711
 30
0.0
 40
0.001488
 41
0.001488
  0
VERTEX
  8
0
 10
4.07557
 20
5.24457
 30
0.0
 40
0.001488
 41
0.001488
  0
VERTEX
  8
0
 10
4.08675
 20
5.26654
 30
0.0
 40
0.001488
 41
0.001488
  0
SEQEND
 8
0
  0
POLYLINE
  8
0
 62
     5
 66
     1
 10
0
 20
0
 30
0.0
 70
     1
 40
0.107136
 41
0.107136
  0
VERTEX
  8
0
 10
1.38515
 20
3.86903
 30
0.0
 40
0.001488
 41
0.001488
  0
VERTEX
  8
0
 10
1.38943
 20
3.87326
 30
0.0
 40
0.001488
 41
0.001488
  0
VERTEX
  8
0
 10
1.39828
 20
3.88211
 30
0.0
 40
0.001488
 41
0.001488
  0
VERTEX
  8
0
 10
1.40663
 20
3.8986
 30
0.0
 40
0.001488
 41
0.001488
  0
VERTEX
  8
0
 10
1.4095
 20
3.91689
 30
0.0
 40
0.001488
 41
0.001488
  0
VERTEX
  8
0
 10
1.40663
 20
3.93517
 30
0.0
 40
0.001488
 41
0.001488
  0
VERTEX
  8
0
 10
1.39828
 20
3.95167
 30
0.0
 40
0.001488
 41
0.001488
  0
VERTEX
  8
0
 10
1.38515
 20
3.96474
 30
0.0
 40
0.001488
 41
0.001488
  0
VERTEX
  8
0
 10
1.36865
 20
3.97314
 30
0.0
 40
0.001488
 41
0.001488
  0
VERTEX
  8
0
 10
1.35086
 20
3.97597
 30
0.0
 40
0.001488
 41
0.001488
  0
VERTEX
  8
0
 10
1.35037
 20
3.97607
 30
0.0
 40
0.001488
 41
0.001488
  0
VERTEX
  8
0
 10
1.33214
 20
3.97314
 30
0.0
 40
0.001488
 41
0.001488
  0
VERTEX
  8
0
 10
1.31565
 20
3.96474
 30
0.0
 40
0.001488
 41
0.001488
  0
VERTEX
  8
0
 10
1.30252
 20
3.95167
 30
0.0
 40
0.001488
 41
0.001488
  0
VERTEX
  8
0
 10
1.29411
 20
3.93517
 30
0.0
 40
0.001488
 41
0.001488
  0
VERTEX
  8
0
 10
1.29123
 20
3.91689
 30
0.0
 40
0.001488
 41
0.001488
  0
VERTEX
  8
0
 10
1.29411
 20
3.8986
 30
0.0
 40
0.001488
 41
0.001488
  0
VERTEX
  8
0
 10
1.30252
 20
3.88211
 30
0.0
 40
0.001488
 41
0.001488
  0
VERTEX
  8
0
 10
1.31136
 20
3.87326
 30
0.0
 40
0.001488
 41
0.001488
  0
VERTEX
  8
0
 10
1.31565
 20
3.86903
 30
0.0
 40
0.001488
 41
0.001488
  0
VERTEX
  8
0
 10
1.33214
 20
3.86062
 30
0.0
 40
0.001488
 41
0.001488
  0
VERTEX
  8
0
 10
1.35037
 20
3.85775
 30
0.0
 40
0.001488
 41
0.001488
  0
VERTEX
  8
0
 10
1.36865
 20
3.86062
 30
0.0
 40
0.001488
 41
0.001488
  0
VERTEX
  8
0
 10
1.38515
 20
3.86903
 30
0.0
 40
0.001488
 41
0.001488
  0
SEQEND
 8
0
  0
POLYLINE
  8
0
 62
     5
 66
     1
 10
0
 20
0
 30
0.0
 70
     1
 40
0.107136
 41
0.107136
  0
VERTEX
  8
0
 10
3.98747
 20
0.554525
 30
0.0
 40
0.001488
 41
0.001488
  0
VERTEX
  8
0
 10
4.01183
 20
0.550618
 30
0.0
 40
0.001488
 41
0.001488
  0
VERTEX
  8
0
 10
4.03618
 20
0.554525
 30
0.0
 40
0.001488
 41
0.001488
  0
VERTEX
  8
0
 10
4.05817
 20
0.565701
 30
0.0
 40
0.001488
 41
0.001488
  0
VERTEX
  8
0
 10
4.07557
 20
0.583171
 30
0.0
 40
0.001488
 41
0.001488
  0
VERTEX
  8
0
 10
4.08675
 20
0.605089
 30
0.0
 40
0.001488
 41
0.001488
  0
VERTEX
  8
0
 10
4.09065
 20
0.629503
 30
0.0
 40
0.001488
 41
0.001488
  0
VERTEX
  8
0
 10
4.08768
 20
0.648058
 30
0.0
 40
0.001488
 41
0.001488
  0
VERTEX
  8
0
 10
4.08675
 20
0.653862
 30
0.0
 40
0.001488
 41
0.001488
  0
VERTEX
  8
0
 10
4.07557
 20
0.675836
 30
0.0
 40
0.001488
 41
0.001488
  0
VERTEX
  8
0
 10
4.05817
 20
0.693251
 30
0.0
 40
0.001488
 41
0.001488
  0
VERTEX
  8
0
 10
4.03618
 20
0.704428
 30
0.0
 40
0.001488
 41
0.001488
  0
VERTEX
  8
0
 10
4.01183
 20
0.708333
 30
0.0
 40
0.001488
 41
0.001488
  0
VERTEX
  8
0
 10
3.98747
 20
0.704428
 30
0.0
 40
0.001488
 41
0.001488
  0
VERTEX
  8
0
 10
3.9655
 20
0.693251
 30
0.0
 40
0.001488
 41
0.001488
  0
VERTEX
  8
0
 10
3.94803
 20
0.675836
 30
0.0
 40
0.001488
 41
0.001488
  0
VERTEX
  8
0
 10
3.93685
 20
0.653862
 30
0.0
 40
0.001488
 41
0.001488
  0
VERTEX
  8
0
 10
3.93593
 20
0.648058
 30
0.0
 40
0.001488
 41
0.001488
  0
VERTEX
  8
0
 10
3.93294
 20
0.629503
 30
0.0
 40
0.001488
 41
0.001488
  0
VERTEX
  8
0
 10
3.93685
 20
0.605089
 30
0.0
 40
0.001488
 41
0.001488
  0
VERTEX
  8
0
 10
3.94803
 20
0.583171
 30
0.0
 40
0.001488
 41
0.001488
  0
VERTEX
  8
0
 10
3.9655
 20
0.565701
 30
0.0
 40
0.001488
 41
0.001488
  0
VERTEX
  8
0
 10
3.98747
 20
0.554525
 30
0.0
 40
0.001488
 41
0.001488
  0
SEQEND
 8
0
  0
POLYLINE
  8
0
 62
     5
 66
     1
 10
0
 20
0
 30
0.0
 70
     1
 40
0.107136
 41
0.107136
  0
VERTEX
  8
0
 10
0.543457
 20
5.81771
 30
0.0
 40
0.001488
 41
0.001488
  0
VERTEX
  8
0
 10
0.54731
 20
5.84207
 30
0.0
 40
0.001488
 41
0.001488
  0
VERTEX
  8
0
 10
0.543457
 20
5.86643
 30
0.0
 40
0.001488
 41
0.001488
  0
VERTEX
  8
0
 10
0.532281
 20
5.8884
 30
0.0
 40
0.001488
 41
0.001488
  0
VERTEX
  8
0
 10
0.514865
 20
5.90587
 30
0.0
 40
0.001488
 41
0.001488
  0
VERTEX
  8
0
 10
0.492893
 20
5.91704
 30
0.0
 40
0.001488
 41
0.001488
  0
VERTEX
  8
0
 10
0.468479
 20
5.92096
 30
0.0
 40
0.001488
 41
0.001488
  0
VERTEX
  8
0
 10
0.444119
 20
5.91704
 30
0.0
 40
0.001488
 41
0.001488
  0
VERTEX
  8
0
 10
0.422146
 20
5.90587
 30
0.0
 40
0.001488
 41
0.001488
  0
VERTEX
  8
0
 10
0.404731
 20
5.8884
 30
0.0
 40
0.001488
 41
0.001488
  0
VERTEX
  8
0
 10
0.393554
 20
5.86643
 30
0.0
 40
0.001488
 41
0.001488
  0
VERTEX
  8
0
 10
0.389649
 20
5.84207
 30
0.0
 40
0.001488
 41
0.001488
  0
VERTEX
  8
0
 10
0.393554
 20
5.81771
 30
0.0
 40
0.001488
 41
0.001488
  0
VERTEX
  8
0
 10
0.398275
 20
5.80838
 30
0.0
 40
0.001488
 41
0.001488
  0
VERTEX
  8
0
 10
0.404731
 20
5.79574
 30
0.0
 40
0.001488
 41
0.001488
  0
VERTEX
  8
0
 10
0.422146
 20
5.77832
 30
0.0
 40
0.001488
 41
0.001488
  0
VERTEX
  8
0
 10
0.444119
 20
5.76714
 30
0.0
 40
0.001488
 41
0.001488
  0
VERTEX
  8
0
 10
0.468479
 20
5.76324
 30
0.0
 40
0.001488
 41
0.001488
  0
VERTEX
  8
0
 10
0.492893
 20
5.76714
 30
0.0
 40
0.001488
 41
0.001488
  0
VERTEX
  8
0
 10
0.514865
 20
5.77832
 30
0.0
 40
0.001488
 41
0.001488
  0
VERTEX
  8
0
 10
0.532281
 20
5.79574
 30
0.0
 40
0.001488
 41
0.001488
  0
VERTEX
  8
0
 10
0.538738
 20
5.80838
 30
0.0
 40
0.001488
 41
0.001488
  0
VERTEX
  8
0
 10
0.543457
 20
5.81771
 30
0.0
 40
0.001488
 41
0.001488
  0
SEQEND
 8
0
  0
POLYLINE
  8
0
 62
     5
 66
     1
 10
0
 20
0
 30
0.0
 70
     1
 40
0.107136
 41
0.107136
  0
VERTEX
  8
0
 10
1.33214
 20
6.1441
 30
0.0
 40
0.001488
 41
0.001488
  0
VERTEX
  8
0
 10
1.35037
 20
6.14122
 30
0.0
 40
0.001488
 41
0.001488
  0
VERTEX
  8
0
 10
1.36865
 20
6.1441
 30
0.0
 40
0.001488
 41
0.001488
  0
VERTEX
  8
0
 10
1.38515
 20
6.15246
 30
0.0
 40
0.001488
 41
0.001488
  0
VERTEX
  8
0
 10
1.39828
 20
6.16558
 30
0.0
 40
0.001488
 41
0.001488
  0
VERTEX
  8
0
 10
1.40663
 20
6.18207
 30
0.0
 40
0.001488
 41
0.001488
  0
VERTEX
  8
0
 10
1.4095
 20
6.20036
 30
0.0
 40
0.001488
 41
0.001488
  0
VERTEX
  8
0
 10
1.40776
 20
6.21153
 30
0.0
 40
0.001488
 41
0.001488
  0
VERTEX
  8
0
 10
1.40663
 20
6.21864
 30
0.0
 40
0.001488
 41
0.001488
  0
VERTEX
  8
0
 10
1.39828
 20
6.23514
 30
0.0
 40
0.001488
 41
0.001488
  0
VERTEX
  8
0
 10
1.38515
 20
6.24821
 30
0.0
 40
0.001488
 41
0.001488
  0
VERTEX
  8
0
 10
1.36865
 20
6.25662
 30
0.0
 40
0.001488
 41
0.001488
  0
VERTEX
  8
0
 10
1.35037
 20
6.25956
 30
0.0
 40
0.001488
 41
0.001488
  0
VERTEX
  8
0
 10
1.33214
 20
6.25662
 30
0.0
 40
0.001488
 41
0.001488
  0
VERTEX
  8
0
 10
1.31565
 20
6.24821
 30
0.0
 40
0.001488
 41
0.001488
  0
VERTEX
  8
0
 10
1.30252
 20
6.23514
 30
0.0
 40
0.001488
 41
0.001488
  0
VERTEX
  8
0
 10
1.29411
 20
6.21864
 30
0.0
 40
0.001488
 41
0.001488
  0
VERTEX
  8
0
 10
1.29302
 20
6.21153
 30
0.0
 40
0.001488
 41
0.001488
  0
VERTEX
  8
0
 10
1.29123
 20
6.20036
 30
0.0
 40
0.001488
 41
0.001488
  0
VERTEX
  8
0
 10
1.29411
 20
6.18207
 30
0.0
 40
0.001488
 41
0.001488
  0
VERTEX
  8
0
 10
1.30252
 20
6.16558
 30
0.0
 40
0.001488
 41
0.001488
  0
VERTEX
  8
0
 10
1.31565
 20
6.15246
 30
0.0
 40
0.001488
 41
0.001488
  0
VERTEX
  8
0
 10
1.33214
 20
6.1441
 30
0.0
 40
0.001488
 41
0.001488
  0
SEQEND
 8
0
  0
POLYLINE
  8
0
 62
     5
 66
     1
 10
0
 20
0
 30
0.0
 70
     1
 40
0.107136
 41
0.107136
  0
VERTEX
  8
0
 10
3.26129
 20
6.1441
 30
0.0
 40
0.001488
 41
0.001488
  0
VERTEX
  8
0
 10
3.27951
 20
6.14122
 30
0.0
 40
0.001488
 41
0.001488
  0
VERTEX
  8
0
 10
3.29779
 20
6.1441
 30
0.0
 40
0.001488
 41
0.001488
  0
VERTEX
  8
0
 10
3.31429
 20
6.15246
 30
0.0
 40
0.001488
 41
0.001488
  0
VERTEX
  8
0
 10
3.32742
 20
6.16558
 30
0.0
 40
0.001488
 41
0.001488
  0
VERTEX
  8
0
 10
3.33578
 20
6.18207
 30
0.0
 40
0.001488
 41
0.001488
  0
VERTEX
  8
0
 10
3.33865
 20
6.20036
 30
0.0
 40
0.001488
 41
0.001488
  0
VERTEX
  8
0
 10
3.33692
 20
6.21153
 30
0.0
 40
0.001488
 41
0.001488
  0
VERTEX
  8
0
 10
3.33578
 20
6.21864
 30
0.0
 40
0.001488
 41
0.001488
  0
VERTEX
  8
0
 10
3.32742
 20
6.23514
 30
0.0
 40
0.001488
 41
0.001488
  0
VERTEX
  8
0
 10
3.31429
 20
6.24821
 30
0.0
 40
0.001488
 41
0.001488
  0
VERTEX
  8
0
 10
3.29779
 20
6.25662
 30
0.0
 40
0.001488
 41
0.001488
  0
VERTEX
  8
0
 10
3.27951
 20
6.25956
 30
0.0
 40
0.001488
 41
0.001488
  0
VERTEX
  8
0
 10
3.26129
 20
6.25662
 30
0.0
 40
0.001488
 41
0.001488
  0
VERTEX
  8
0
 10
3.24474
 20
6.24821
 30
0.0
 40
0.001488
 41
0.001488
  0
VERTEX
  8
0
 10
3.23167
 20
6.23514
 30
0.0
 40
0.001488
 41
0.001488
  0
VERTEX
  8
0
 10
3.22325
 20
6.21864
 30
0.0
 40
0.001488
 41
0.001488
  0
VERTEX
  8
0
 10
3.22211
 20
6.21153
 30
0.0
 40
0.001488
 41
0.001488
  0
VERTEX
  8
0
 10
3.22038
 20
6.20036
 30
0.0
 40
0.001488
 41
0.001488
  0
VERTEX
  8
0
 10
3.22325
 20
6.18207
 30
0.0
 40
0.001488
 41
0.001488
  0
VERTEX
  8
0
 10
3.23167
 20
6.16558
 30
0.0
 40
0.001488
 41
0.001488
  0
VERTEX
  8
0
 10
3.24474
 20
6.15246
 30
0.0
 40
0.001488
 41
0.001488
  0
VERTEX
  8
0
 10
3.26129
 20
6.1441
 30
0.0
 40
0.001488
 41
0.001488
  0
SEQEND
 8
0
  0
POLYLINE
  8
0
 62
     5
 66
     1
 10
0
 20
0
 30
0.0
 70
     1
 40
0.107136
 41
0.107136
  0
VERTEX
  8
0
 10
0.392632
 20
0.648058
 30
0.0
 40
0.001488
 41
0.001488
  0
VERTEX
  8
0
 10
0.389649
 20
0.629503
 30
0.0
 40
0.001488
 41
0.001488
  0
VERTEX
  8
0
 10
0.393554
 20
0.605089
 30
0.0
 40
0.001488
 41
0.001488
  0
VERTEX
  8
0
 10
0.404731
 20
0.583171
 30
0.0
 40
0.001488
 41
0.001488
  0
VERTEX
  8
0
 10
0.422146
 20
0.565701
 30
0.0
 40
0.001488
 41
0.001488
  0
VERTEX
  8
0
 10
0.444119
 20
0.554525
 30
0.0
 40
0.001488
 41
0.001488
  0
VERTEX
  8
0
 10
0.468479
 20
0.550618
 30
0.0
 40
0.001488
 41
0.001488
  0
VERTEX
  8
0
 10
0.492893
 20
0.554525
 30
0.0
 40
0.001488
 41
0.001488
  0
VERTEX
  8
0
 10
0.514865
 20
0.565701
 30
0.0
 40
0.001488
 41
0.001488
  0
VERTEX
  8
0
 10
0.532281
 20
0.583171
 30
0.0
 40
0.001488
 41
0.001488
  0
VERTEX
  8
0
 10
0.543457
 20
0.605089
 30
0.0
 40
0.001488
 41
0.001488
  0
VERTEX
  8
0
 10
0.54731
 20
0.629503
 30
0.0
 40
0.001488
 41
0.001488
  0
VERTEX
  8
0
 10
0.544379
 20
0.648058
 30
0.0
 40
0.001488
 41
0.001488
  0
VERTEX
  8
0
 10
0.543457
 20
0.653862
 30
0.0
 40
0.001488
 41
0.001488
  0
VERTEX
  8
0
 10
0.532281
 20
0.675836
 30
0.0
 40
0.001488
 41
0.001488
  0
VERTEX
  8
0
 10
0.514865
 20
0.693251
 30
0.0
 40
0.001488
 41
0.001488
  0
VERTEX
  8
0
 10
0.492893
 20
0.704428
 30
0.0
 40
0.001488
 41
0.001488
  0
VERTEX
  8
0
 10
0.468479
 20
0.708333
 30
0.0
 40
0.001488
 41
0.001488
  0
VERTEX
  8
0
 10
0.444119
 20
0.704428
 30
0.0
 40
0.001488
 41
0.001488
  0
VERTEX
  8
0
 10
0.422146
 20
0.693251
 30
0.0
 40
0.001488
 41
0.001488
  0
VERTEX
  8
0
 10
0.404731
 20
0.675836
 30
0.0
 40
0.001488
 41
0.001488
  0
VERTEX
  8
0
 10
0.393554
 20
0.653862
 30
0.0
 40
0.001488
 41
0.001488
  0
VERTEX
  8
0
 10
0.392632
 20
0.648058
 30
0.0
 40
0.001488
 41
0.001488
  0
SEQEND
 8
0
  0
POLYLINE
  8
0
 62
     5
 66
     1
 10
0
 20
0
 30
0.0
 70
     1
 40
0.107136
 41
0.107136
  0
VERTEX
  8
0
 10
4.01167
 20
5.76329
 30
0.0
 40
0.001488
 41
0.001488
  0
VERTEX
  8
0
 10
4.01183
 20
5.76324
 30
0.0
 40
0.001488
 41
0.001488
  0
VERTEX
  8
0
 10
4.03618
 20
5.76714
 30
0.0
 40
0.001488
 41
0.001488
  0
VERTEX
  8
0
 10
4.05817
 20
5.77832
 30
0.0
 40
0.001488
 41
0.001488
  0
VERTEX
  8
0
 10
4.07557
 20
5.79574
 30
0.0
 40
0.001488
 41
0.001488
  0
VERTEX
  8
0
 10
4.08675
 20
5.81771
 30
0.0
 40
0.001488
 41
0.001488
  0
VERTEX
  8
0
 10
4.09065
 20
5.84207
 30
0.0
 40
0.001488
 41
0.001488
  0
VERTEX
  8
0
 10
4.08675
 20
5.86643
 30
0.0
 40
0.001488
 41
0.001488
  0
VERTEX
  8
0
 10
4.07557
 20
5.8884
 30
0.0
 40
0.001488
 41
0.001488
  0
VERTEX
  8
0
 10
4.05817
 20
5.90587
 30
0.0
 40
0.001488
 41
0.001488
  0
VERTEX
  8
0
 10
4.03618
 20
5.91704
 30
0.0
 40
0.001488
 41
0.001488
  0
VERTEX
  8
0
 10
4.01183
 20
5.92096
 30
0.0
 40
0.001488
 41
0.001488
  0
VERTEX
  8
0
 10
4.01167
 20
5.9209
 30
0.0
 40
0.001488
 41
0.001488
  0
VERTEX
  8
0
 10
3.98747
 20
5.91704
 30
0.0
 40
0.001488
 41
0.001488
  0
VERTEX
  8
0
 10
3.9655
 20
5.90587
 30
0.0
 40
0.001488
 41
0.001488
  0
VERTEX
  8
0
 10
3.94803
 20
5.8884
 30
0.0
 40
0.001488
 41
0.001488
  0
VERTEX
  8
0
 10
3.93685
 20
5.86643
 30
0.0
 40
0.001488
 41
0.001488
  0
VERTEX
  8
0
 10
3.93294
 20
5.84207
 30
0.0
 40
0.001488
 41
0.001488
  0
VERTEX
  8
0
 10
3.93685
 20
5.81771
 30
0.0
 40
0.001488
 41
0.001488
  0
VERTEX
  8
0
 10
3.94803
 20
5.79574
 30
0.0
 40
0.001488
 41
0.001488
  0
VERTEX
  8
0
 10
3.9655
 20
5.77832
 30
0.0
 40
0.001488
 41
0.001488
  0
VERTEX
  8
0
 10
3.98747
 20
5.76714
 30
0.0
 40
0.001488
 41
0.001488
  0
VERTEX
  8
0
 10
4.01167
 20
5.76329
 30
0.0
 40
0.001488
 41
0.001488
  0
SEQEND
 8
0
  0
POLYLINE
  8
0
 62
     5
 66
     1
 10
0
 20
0
 30
0.0
 70
     1
 40
0.107136
 41
0.107136
  0
VERTEX
  8
0
 10
0.543457
 20
5.26654
 30
0.0
 40
0.001488
 41
0.001488
  0
VERTEX
  8
0
 10
0.54731
 20
5.2909
 30
0.0
 40
0.001488
 41
0.001488
  0
VERTEX
  8
0
 10
0.543457
 20
5.31526
 30
0.0
 40
0.001488
 41
0.001488
  0
VERTEX
  8
0
 10
0.538738
 20
5.3246
 30
0.0
 40
0.001488
 41
0.001488
  0
VERTEX
  8
0
 10
0.532281
 20
5.33724
 30
0.0
 40
0.001488
 41
0.001488
  0
VERTEX
  8
0
 10
0.514865
 20
5.35465
 30
0.0
 40
0.001488
 41
0.001488
  0
VERTEX
  8
0
 10
0.492893
 20
5.36589
 30
0.0
 40
0.001488
 41
0.001488
  0
VERTEX
  8
0
 10
0.468479
 20
5.36974
 30
0.0
 40
0.001488
 41
0.001488
  0
VERTEX
  8
0
 10
0.444119
 20
5.36589
 30
0.0
 40
0.001488
 41
0.001488
  0
VERTEX
  8
0
 10
0.422146
 20
5.35465
 30
0.0
 40
0.001488
 41
0.001488
  0
VERTEX
  8
0
 10
0.404731
 20
5.33724
 30
0.0
 40
0.001488
 41
0.001488
  0
VERTEX
  8
0
 10
0.398275
 20
5.3246
 30
0.0
 40
0.001488
 41
0.001488
  0
VERTEX
  8
0
 10
0.393554
 20
5.31526
 30
0.0
 40
0.001488
 41
0.001488
  0
VERTEX
  8
0
 10
0.389649
 20
5.2909
 30
0.0
 40
0.001488
 41
0.001488
  0
VERTEX
  8
0
 10
0.393554
 20
5.26654
 30
0.0
 40
0.001488
 41
0.001488
  0
VERTEX
  8
0
 10
0.404731
 20
5.24457
 30
0.0
 40
0.001488
 41
0.001488
  0
VERTEX
  8
0
 10
0.422146
 20
5.22711
 30
0.0
 40
0.001488
 41
0.001488
  0
VERTEX
  8
0
 10
0.444119
 20
5.21593
 30
0.0
 40
0.001488
 41
0.001488
  0
VERTEX
  8
0
 10
0.468479
 20
5.21208
 30
0.0
 40
0.001488
 41
0.001488
  0
VERTEX
  8
0
 10
0.492893
 20
5.21593
 30
0.0
 40
0.001488
 41
0.001488
  0
VERTEX
  8
0
 10
0.514865
 20
5.22711
 30
0.0
 40
0.001488
 41
0.001488
  0
VERTEX
  8
0
 10
0.532281
 20
5.24457
 30
0.0
 40
0.001488
 41
0.001488
  0
VERTEX
  8
0
 10
0.543457
 20
5.26654
 30
0.0
 40
0.001488
 41
0.001488
  0
SEQEND
 8
0
  0
ENDSEC
  0
EOF
