<?xml version="1.0" standalone="no"?>
<!DOCTYPE svg PUBLIC "-//W3C//DTD SVG 1.1//EN"
  "http://www.w3.org/Graphics/SVG/1.1/DTD/svg11.dtd">
<svg width="113.80000305175781mm" height="163.5mm" viewBox="-97.80000305175781 -73.5 113.80000305175781 163.5" xmlns="http://www.w3.org/2000/svg" version="1.1">
	<title>svgOutput</title>
	<desc>made with tinkercad</desc>
<path d="M -78.2979965209961 89 L -78.2979965209961 79.49800109863281 L -87.90299987792969 79.49800109863281 L -96.80000305175781 79.49800109863281 L -96.80000305175781 -62.99800109863281 L -87.90299987792969 -62.99800109863281 L -83.89800262451172 -62.99800109863281 L -78.2979965209961 -62.99800109863281 L -78.2979965209961 -72.5 L -65.00299835205078 -72.5 L -61.99800109863281 -72.5 L -16.003000259399414 -72.5 L -12.998000144958496 -72.5 L -3.503000020980835 -72.5 L -3.503000020980835 -65.7979965209961 L -3.503000020980835 -62.99800109863281 L 2.0969998836517334 -62.99800109863281 L 6.103000164031982 -62.99800109863281 L 15 -62.99800109863281 L 15 -56.198001861572266 L 15 -42.198001861572266 L 15 76.2030029296875 L 15 79.49800109863281 L 2.0969998836517334 79.49800109863281 L -3.503000020980835 79.49800109863281 L -3.503000020980835 89 L -16.003000259399414 89 L -65.00299835205078 89 L -78.2979965209961 89 M -14.96399974822998 -7.870999813079834 L -14.5 -7.797999858856201 L -14.03600025177002 -7.870999813079834 L -13.616999626159668 -8.083999633789062 L -13.508999824523926 -8.192000389099121 L -13.284000396728516 -8.416999816894531 L -13.071000099182129 -8.836000442504883 L -12.998000144958496 -9.300000190734863 L -13.071000099182129 -9.763999938964844 L -13.284000396728516 -10.182999610900879 L -13.616999626159668 -10.515999794006348 L -14.03600025177002 -10.729000091552734 L -14.336000442504883 -10.77684497833252 L -14.5 -10.803000450134277 L -14.96399974822998 -10.729000091552734 L -15.383000373840332 -10.515999794006348 L -15.715999603271484 -10.182999610900879 L -15.928999900817871 -9.763999938964844 L -16.003000259399414 -9.300000190734863 L -15.928999900817871 -8.836000442504883 L -15.715999603271484 -8.416999816894531 L -15.491000175476074 -8.192000389099121 L -15.383000373840332 -8.083999633789062 L -14.96399974822998 -7.870999813079834 M 6.004000186920166 -43.58100128173828 L 6.103000164031982 -44.20000076293945 L 6.004000186920166 -44.819000244140625 L 5.71999979019165 -45.37699890136719 L 5.2769999504089355 -45.81999969482422 L 4.718999862670898 -46.104000091552734 L 4.099999904632568 -46.202999114990234 L 4.0960001945495605 -46.202362060546875 L 3.4809999465942383 -46.104000091552734 L 2.9230000972747803 -45.81999969482422 L 2.4800000190734863 -45.37699890136719 L 2.196000099182129 -44.819000244140625 L 2.0969998836517334 -44.20000076293945 L 2.196000099182129 -43.58100128173828 L 2.4800000190734863 -43.02299880981445 L 2.9230000972747803 -42.58000183105469 L 3.4809999465942383 -42.29600143432617 L 4.0960001945495605 -42.19863510131836 L 4.099999904632568 -42.198001861572266 L 4.718999862670898 -42.29600143432617 L 5.2769999504089355 -42.58000183105469 L 5.71999979019165 -43.02299880981445 L 6.004000186920166 -43.58100128173828 M -62.617000579833984 -8.083999633789062 L -62.50899887084961 -8.192000389099121 L -62.284000396728516 -8.416999816894531 L -62.07099914550781 -8.836000442504883 L -61.99800109863281 -9.300000190734863 L -62.07099914550781 -9.763999938964844 L -62.284000396728516 -10.182999610900879 L -62.617000579833984 -10.515999794006348 L -63.0359992980957 -10.729000091552734 L -63.487998962402344 -10.80108642578125 L -63.5 -10.803000450134277 L -63.9640007019043 -10.729000091552734 L -64.38300323486328 -10.515999794006348 L -64.71600341796875 -10.182999610900879 L -64.92900085449219 -9.763999938964844 L -65.00299835205078 -9.300000190734863 L -64.92900085449219 -8.836000442504883 L -64.71600341796875 -8.416999816894531 L -64.49099731445312 -8.192000389099121 L -64.38300323486328 -8.083999633789062 L -63.9640007019043 -7.870999813079834 L -63.5 -7.797999858856201 L -63.0359992980957 -7.870999813079834 L -62.617000579833984 -8.083999633789062 M 3.4809999465942383 76.10399627685547 L 4.099999904632568 76.2030029296875 L 4.718999862670898 76.10399627685547 L 5.2769999504089355 75.81999969482422 L 5.71999979019165 75.37699890136719 L 6.004000186920166 74.81900024414062 L 6.103000164031982 74.19999694824219 L 6.027510643005371 73.72799682617188 L 6.004000186920166 73.58100128173828 L 5.71999979019165 73.02300262451172 L 5.2769999504089355 72.58000183105469 L 4.718999862670898 72.2959976196289 L 4.099999904632568 72.1969985961914 L 3.4809999465942383 72.2959976196289 L 2.9230000972747803 72.58000183105469 L 2.4800000190734863 73.02300262451172 L 2.196000099182129 73.58100128173828 L 2.1724894046783447 73.72799682617188 L 2.0969998836517334 74.19999694824219 L 2.196000099182129 74.81900024414062 L 2.4800000190734863 75.37699890136719 L 2.9230000972747803 75.81999969482422 L 3.4809999465942383 76.10399627685547 M -83.99600219726562 -57.58100128173828 L -83.89800262451172 -58.20000076293945 L -83.99600219726562 -58.819000244140625 L -84.27999877929688 -59.37699890136719 L -84.7229995727539 -59.81999969482422 L -85.28099822998047 -60.104000091552734 L -85.9000015258789 -60.202999114990234 L -86.51899719238281 -60.104000091552734 L -87.0770034790039 -59.81999969482422 L -87.5199966430664 -59.37699890136719 L -87.80400085449219 -58.819000244140625 L -87.90299987792969 -58.20000076293945 L -87.80400085449219 -57.58100128173828 L -87.68338012695312 -57.34400177001953 L -87.5199966430664 -57.02299880981445 L -87.0770034790039 -56.58000183105469 L -86.51899719238281 -56.29600143432617 L -85.9000015258789 -56.198001861572266 L -85.28099822998047 -56.29600143432617 L -84.7229995727539 -56.58000183105469 L -84.27999877929688 -57.02299880981445 L -84.11662292480469 -57.34400177001953 L -83.99600219726562 -57.58100128173828 M -63.9640007019043 -65.87100219726562 L -63.5 -65.7979965209961 L -63.0359992980957 -65.87100219726562 L -62.617000579833984 -66.08399963378906 L -62.284000396728516 -66.41699981689453 L -62.07099914550781 -66.83599853515625 L -61.99800109863281 -67.30000305175781 L -62.04268264770508 -67.58399963378906 L -62.07099914550781 -67.76399993896484 L -62.284000396728516 -68.18299865722656 L -62.617000579833984 -68.51599884033203 L -63.0359992980957 -68.72899627685547 L -63.5 -68.8030014038086 L -63.9640007019043 -68.72899627685547 L -64.38300323486328 -68.51599884033203 L -64.71600341796875 -68.18299865722656 L -64.92900085449219 -67.76399993896484 L -64.95771026611328 -67.58399963378906 L -65.00299835205078 -67.30000305175781 L -64.92900085449219 -66.83599853515625 L -64.71600341796875 -66.41699981689453 L -64.38300323486328 -66.08399963378906 L -63.9640007019043 -65.87100219726562 M -14.96399974822998 -65.87100219726562 L -14.5 -65.7979965209961 L -14.03600025177002 -65.87100219726562 L -13.616999626159668 -66.08399963378906 L -13.284000396728516 -66.41699981689453 L -13.071000099182129 -66.83599853515625 L -12.998000144958496 -67.30000305175781 L -13.042680740356445 -67.58399963378906 L -13.071000099182129 -67.76399993896484 L -13.284000396728516 -68.18299865722656 L -13.616999626159668 -68.51599884033203 L -14.03600025177002 -68.72899627685547 L -14.5 -68.8030014038086 L -14.96399974822998 -68.72899627685547 L -15.383000373840332 -68.51599884033203 L -15.715999603271484 -68.18299865722656 L -15.928999900817871 -67.76399993896484 L -15.957706451416016 -67.58399963378906 L -16.003000259399414 -67.30000305175781 L -15.928999900817871 -66.83599853515625 L -15.715999603271484 -66.41699981689453 L -15.383000373840332 -66.08399963378906 L -14.96399974822998 -65.87100219726562 M -87.82750701904297 73.72799682617188 L -87.90299987792969 74.19999694824219 L -87.80400085449219 74.81900024414062 L -87.5199966430664 75.37699890136719 L -87.0770034790039 75.81999969482422 L -86.51899719238281 76.10399627685547 L -85.9000015258789 76.2030029296875 L -85.28099822998047 76.10399627685547 L -84.7229995727539 75.81999969482422 L -84.27999877929688 75.37699890136719 L -83.99600219726562 74.81900024414062 L -83.89800262451172 74.19999694824219 L -83.97272491455078 73.72799682617188 L -83.99600219726562 73.58100128173828 L -84.27999877929688 73.02300262451172 L -84.7229995727539 72.58000183105469 L -85.28099822998047 72.2959976196289 L -85.9000015258789 72.1969985961914 L -86.51899719238281 72.2959976196289 L -87.0770034790039 72.58000183105469 L -87.5199966430664 73.02300262451172 L -87.80400085449219 73.58100128173828 L -87.82750701904297 73.72799682617188 M 4.0960001945495605 -56.19863510131836 L 4.099999904632568 -56.198001861572266 L 4.718999862670898 -56.29600143432617 L 5.2769999504089355 -56.58000183105469 L 5.71999979019165 -57.02299880981445 L 6.004000186920166 -57.58100128173828 L 6.103000164031982 -58.20000076293945 L 6.004000186920166 -58.819000244140625 L 5.71999979019165 -59.37699890136719 L 5.2769999504089355 -59.81999969482422 L 4.718999862670898 -60.104000091552734 L 4.099999904632568 -60.202999114990234 L 4.0960001945495605 -60.202362060546875 L 3.4809999465942383 -60.104000091552734 L 2.9230000972747803 -59.81999969482422 L 2.4800000190734863 -59.37699890136719 L 2.196000099182129 -58.819000244140625 L 2.0969998836517334 -58.20000076293945 L 2.196000099182129 -57.58100128173828 L 2.4800000190734863 -57.02299880981445 L 2.9230000972747803 -56.58000183105469 L 3.4809999465942383 -56.29600143432617 L 4.0960001945495605 -56.19863510131836 M -83.99600219726562 -43.58100128173828 L -83.89800262451172 -44.20000076293945 L -83.99600219726562 -44.819000244140625 L -84.11662292480469 -45.055999755859375 L -84.27999877929688 -45.37699890136719 L -84.7229995727539 -45.81999969482422 L -85.28099822998047 -46.104000091552734 L -85.9000015258789 -46.202999114990234 L -86.51899719238281 -46.104000091552734 L -87.0770034790039 -45.81999969482422 L -87.5199966430664 -45.37699890136719 L -87.68338012695312 -45.055999755859375 L -87.80400085449219 -44.819000244140625 L -87.90299987792969 -44.20000076293945 L -87.80400085449219 -43.58100128173828 L -87.5199966430664 -43.02299880981445 L -87.0770034790039 -42.58000183105469 L -86.51899719238281 -42.29600143432617 L -85.9000015258789 -42.198001861572266 L -85.28099822998047 -42.29600143432617 L -84.7229995727539 -42.58000183105469 L -84.27999877929688 -43.02299880981445 L -83.99600219726562 -43.58100128173828 z" fill="none" stroke="rgb(0,0,255)" stroke-width="0.01mm" />
</svg>