  0
SECTION
  2
HEADER
  9
$ACADVER
  1
AC1009
  9
$EXTMIN
 10
0.0
 20
0.0
 30
0.0
  9
$EXTMAX
 10
1000.0
 20
1000.0
 30
0.0
  9
$FILLMODE
 70
 0
  9
$SPLFRAME
 70
 1
  0
ENDSEC
  0
SECTION
  2
TABLES
  0
TABLE
  2
LAYER
 70
1
  0
LAYER
  2
0
 70
     0
 62
     7
  6
CONTINUOUS
  0
ENDTAB
  0
ENDSEC
  0
SECTION
  2
ENTITIES
  0
POLYLINE
  8
0
 62
     5
 66
     1
 10
0
 20
0
 30
0.0
 70
     1
 40
0.107136
 41
0.107136
  0
VERTEX
  8
0
 10
0.0393881
 20
6.04486
 30
0.0
 40
0.001488
 41
0.001488
  0
VERTEX
  8
0
 10
0.767796
 20
6.04486
 30
0.0
 40
0.001488
 41
0.001488
  0
VERTEX
  8
0
 10
0.767796
 20
6.41894
 30
0.0
 40
0.001488
 41
0.001488
  0
VERTEX
  8
0
 10
3.72038
 20
6.41894
 30
0.0
 40
0.001488
 41
0.001488
  0
VERTEX
  8
0
 10
3.72038
 20
6.04486
 30
0.0
 40
0.001488
 41
0.001488
  0
VERTEX
  8
0
 10
4.44883
 20
6.04486
 30
0.0
 40
0.001488
 41
0.001488
  0
VERTEX
  8
0
 10
4.44883
 20
0.415093
 30
0.0
 40
0.001488
 41
0.001488
  0
VERTEX
  8
0
 10
3.72038
 20
0.415093
 30
0.0
 40
0.001488
 41
0.001488
  0
VERTEX
  8
0
 10
3.72038
 20
0.0410157
 30
0.0
 40
0.001488
 41
0.001488
  0
VERTEX
  8
0
 10
0.767796
 20
0.0410157
 30
0.0
 40
0.001488
 41
0.001488
  0
VERTEX
  8
0
 10
0.767796
 20
0.415093
 30
0.0
 40
0.001488
 41
0.001488
  0
VERTEX
  8
0
 10
0.0393881
 20
0.415093
 30
0.0
 40
0.001488
 41
0.001488
  0
VERTEX
  8
0
 10
0.0393881
 20
6.04486
 30
0.0
 40
0.001488
 41
0.001488
  0
SEQEND
 8
0
  0
POLYLINE
  8
0
 62
     5
 66
     1
 10
0
 20
0
 30
0.0
 70
     1
 40
0.107136
 41
0.107136
  0
VERTEX
  8
0
 10
4.21729
 20
0.686849
 30
0.0
 40
0.001488
 41
0.001488
  0
VERTEX
  8
0
 10
4.19293
 20
0.690701
 30
0.0
 40
0.001488
 41
0.001488
  0
VERTEX
  8
0
 10
4.16857
 20
0.686849
 30
0.0
 40
0.001488
 41
0.001488
  0
VERTEX
  8
0
 10
4.1466
 20
0.675672
 30
0.0
 40
0.001488
 41
0.001488
  0
VERTEX
  8
0
 10
4.12912
 20
0.658203
 30
0.0
 40
0.001488
 41
0.001488
  0
VERTEX
  8
0
 10
4.12104
 20
0.642253
 30
0.0
 40
0.001488
 41
0.001488
  0
VERTEX
  8
0
 10
4.11794
 20
0.636231
 30
0.0
 40
0.001488
 41
0.001488
  0
VERTEX
  8
0
 10
4.1141
 20
0.611871
 30
0.0
 40
0.001488
 41
0.001488
  0
VERTEX
  8
0
 10
4.11794
 20
0.587511
 30
0.0
 40
0.001488
 41
0.001488
  0
VERTEX
  8
0
 10
4.12912
 20
0.565539
 30
0.0
 40
0.001488
 41
0.001488
  0
VERTEX
  8
0
 10
4.1466
 20
0.548122
 30
0.0
 40
0.001488
 41
0.001488
  0
VERTEX
  8
0
 10
4.16857
 20
0.536893
 30
0.0
 40
0.001488
 41
0.001488
  0
VERTEX
  8
0
 10
4.19293
 20
0.53304
 30
0.0
 40
0.001488
 41
0.001488
  0
VERTEX
  8
0
 10
4.21729
 20
0.536893
 30
0.0
 40
0.001488
 41
0.001488
  0
VERTEX
  8
0
 10
4.23926
 20
0.548122
 30
0.0
 40
0.001488
 41
0.001488
  0
VERTEX
  8
0
 10
4.25667
 20
0.565539
 30
0.0
 40
0.001488
 41
0.001488
  0
VERTEX
  8
0
 10
4.26785
 20
0.587511
 30
0.0
 40
0.001488
 41
0.001488
  0
VERTEX
  8
0
 10
4.27175
 20
0.611871
 30
0.0
 40
0.001488
 41
0.001488
  0
VERTEX
  8
0
 10
4.26785
 20
0.636231
 30
0.0
 40
0.001488
 41
0.001488
  0
VERTEX
  8
0
 10
4.26481
 20
0.642253
 30
0.0
 40
0.001488
 41
0.001488
  0
VERTEX
  8
0
 10
4.25667
 20
0.658203
 30
0.0
 40
0.001488
 41
0.001488
  0
VERTEX
  8
0
 10
4.23926
 20
0.675672
 30
0.0
 40
0.001488
 41
0.001488
  0
VERTEX
  8
0
 10
4.21729
 20
0.686849
 30
0.0
 40
0.001488
 41
0.001488
  0
SEQEND
 8
0
  0
POLYLINE
  8
0
 62
     5
 66
     1
 10
0
 20
0
 30
0.0
 70
     1
 40
0.107136
 41
0.107136
  0
VERTEX
  8
0
 10
4.26785
 20
5.27257
 30
0.0
 40
0.001488
 41
0.001488
  0
VERTEX
  8
0
 10
4.27175
 20
5.29693
 30
0.0
 40
0.001488
 41
0.001488
  0
VERTEX
  8
0
 10
4.26828
 20
5.31879
 30
0.0
 40
0.001488
 41
0.001488
  0
VERTEX
  8
0
 10
4.26785
 20
5.32129
 30
0.0
 40
0.001488
 41
0.001488
  0
VERTEX
  8
0
 10
4.25667
 20
5.34326
 30
0.0
 40
0.001488
 41
0.001488
  0
VERTEX
  8
0
 10
4.23926
 20
5.36068
 30
0.0
 40
0.001488
 41
0.001488
  0
VERTEX
  8
0
 10
4.21729
 20
5.37185
 30
0.0
 40
0.001488
 41
0.001488
  0
VERTEX
  8
0
 10
4.19293
 20
5.37576
 30
0.0
 40
0.001488
 41
0.001488
  0
VERTEX
  8
0
 10
4.16857
 20
5.37185
 30
0.0
 40
0.001488
 41
0.001488
  0
VERTEX
  8
0
 10
4.1466
 20
5.36068
 30
0.0
 40
0.001488
 41
0.001488
  0
VERTEX
  8
0
 10
4.12912
 20
5.34326
 30
0.0
 40
0.001488
 41
0.001488
  0
VERTEX
  8
0
 10
4.11794
 20
5.32129
 30
0.0
 40
0.001488
 41
0.001488
  0
VERTEX
  8
0
 10
4.11757
 20
5.31879
 30
0.0
 40
0.001488
 41
0.001488
  0
VERTEX
  8
0
 10
4.1141
 20
5.29693
 30
0.0
 40
0.001488
 41
0.001488
  0
VERTEX
  8
0
 10
4.11794
 20
5.27257
 30
0.0
 40
0.001488
 41
0.001488
  0
VERTEX
  8
0
 10
4.12912
 20
5.2506
 30
0.0
 40
0.001488
 41
0.001488
  0
VERTEX
  8
0
 10
4.1466
 20
5.23313
 30
0.0
 40
0.001488
 41
0.001488
  0
VERTEX
  8
0
 10
4.16857
 20
5.22194
 30
0.0
 40
0.001488
 41
0.001488
  0
VERTEX
  8
0
 10
4.19293
 20
5.2181
 30
0.0
 40
0.001488
 41
0.001488
  0
VERTEX
  8
0
 10
4.21729
 20
5.22194
 30
0.0
 40
0.001488
 41
0.001488
  0
VERTEX
  8
0
 10
4.23926
 20
5.23313
 30
0.0
 40
0.001488
 41
0.001488
  0
VERTEX
  8
0
 10
4.25667
 20
5.2506
 30
0.0
 40
0.001488
 41
0.001488
  0
VERTEX
  8
0
 10
4.26785
 20
5.27257
 30
0.0
 40
0.001488
 41
0.001488
  0
SEQEND
 8
0
  0
POLYLINE
  8
0
 62
     5
 66
     1
 10
0
 20
0
 30
0.0
 70
     1
 40
0.107136
 41
0.107136
  0
VERTEX
  8
0
 10
3.26915
 20
6.22493
 30
0.0
 40
0.001488
 41
0.001488
  0
VERTEX
  8
0
 10
3.28737
 20
6.22206
 30
0.0
 40
0.001488
 41
0.001488
  0
VERTEX
  8
0
 10
3.30567
 20
6.22493
 30
0.0
 40
0.001488
 41
0.001488
  0
VERTEX
  8
0
 10
3.32215
 20
6.23329
 30
0.0
 40
0.001488
 41
0.001488
  0
VERTEX
  8
0
 10
3.33529
 20
6.24642
 30
0.0
 40
0.001488
 41
0.001488
  0
VERTEX
  8
0
 10
3.34364
 20
6.26292
 30
0.0
 40
0.001488
 41
0.001488
  0
VERTEX
  8
0
 10
3.34651
 20
6.28114
 30
0.0
 40
0.001488
 41
0.001488
  0
VERTEX
  8
0
 10
3.34571
 20
6.28635
 30
0.0
 40
0.001488
 41
0.001488
  0
VERTEX
  8
0
 10
3.34364
 20
6.29943
 30
0.0
 40
0.001488
 41
0.001488
  0
VERTEX
  8
0
 10
3.33529
 20
6.31592
 30
0.0
 40
0.001488
 41
0.001488
  0
VERTEX
  8
0
 10
3.32215
 20
6.32904
 30
0.0
 40
0.001488
 41
0.001488
  0
VERTEX
  8
0
 10
3.30567
 20
6.3374
 30
0.0
 40
0.001488
 41
0.001488
  0
VERTEX
  8
0
 10
3.28737
 20
6.34033
 30
0.0
 40
0.001488
 41
0.001488
  0
VERTEX
  8
0
 10
3.26915
 20
6.3374
 30
0.0
 40
0.001488
 41
0.001488
  0
VERTEX
  8
0
 10
3.25265
 20
6.32904
 30
0.0
 40
0.001488
 41
0.001488
  0
VERTEX
  8
0
 10
3.23953
 20
6.31592
 30
0.0
 40
0.001488
 41
0.001488
  0
VERTEX
  8
0
 10
3.23113
 20
6.29943
 30
0.0
 40
0.001488
 41
0.001488
  0
VERTEX
  8
0
 10
3.22906
 20
6.28635
 30
0.0
 40
0.001488
 41
0.001488
  0
VERTEX
  8
0
 10
3.22825
 20
6.28114
 30
0.0
 40
0.001488
 41
0.001488
  0
VERTEX
  8
0
 10
3.23113
 20
6.26292
 30
0.0
 40
0.001488
 41
0.001488
  0
VERTEX
  8
0
 10
3.23953
 20
6.24642
 30
0.0
 40
0.001488
 41
0.001488
  0
VERTEX
  8
0
 10
3.25265
 20
6.23329
 30
0.0
 40
0.001488
 41
0.001488
  0
VERTEX
  8
0
 10
3.26915
 20
6.22493
 30
0.0
 40
0.001488
 41
0.001488
  0
SEQEND
 8
0
  0
POLYLINE
  8
0
 62
     5
 66
     1
 10
0
 20
0
 30
0.0
 70
     1
 40
0.107136
 41
0.107136
  0
VERTEX
  8
0
 10
1.41456
 20
6.26292
 30
0.0
 40
0.001488
 41
0.001488
  0
VERTEX
  8
0
 10
1.41743
 20
6.28114
 30
0.0
 40
0.001488
 41
0.001488
  0
VERTEX
  8
0
 10
1.41656
 20
6.28635
 30
0.0
 40
0.001488
 41
0.001488
  0
VERTEX
  8
0
 10
1.41456
 20
6.29943
 30
0.0
 40
0.001488
 41
0.001488
  0
VERTEX
  8
0
 10
1.40614
 20
6.31592
 30
0.0
 40
0.001488
 41
0.001488
  0
VERTEX
  8
0
 10
1.39301
 20
6.32904
 30
0.0
 40
0.001488
 41
0.001488
  0
VERTEX
  8
0
 10
1.37652
 20
6.3374
 30
0.0
 40
0.001488
 41
0.001488
  0
VERTEX
  8
0
 10
1.35829
 20
6.34033
 30
0.0
 40
0.001488
 41
0.001488
  0
VERTEX
  8
0
 10
1.34001
 20
6.3374
 30
0.0
 40
0.001488
 41
0.001488
  0
VERTEX
  8
0
 10
1.32351
 20
6.32904
 30
0.0
 40
0.001488
 41
0.001488
  0
VERTEX
  8
0
 10
1.31038
 20
6.31592
 30
0.0
 40
0.001488
 41
0.001488
  0
VERTEX
  8
0
 10
1.30203
 20
6.29943
 30
0.0
 40
0.001488
 41
0.001488
  0
VERTEX
  8
0
 10
1.29991
 20
6.28635
 30
0.0
 40
0.001488
 41
0.001488
  0
VERTEX
  8
0
 10
1.2991
 20
6.28114
 30
0.0
 40
0.001488
 41
0.001488
  0
VERTEX
  8
0
 10
1.30203
 20
6.26292
 30
0.0
 40
0.001488
 41
0.001488
  0
VERTEX
  8
0
 10
1.31038
 20
6.24642
 30
0.0
 40
0.001488
 41
0.001488
  0
VERTEX
  8
0
 10
1.32351
 20
6.23329
 30
0.0
 40
0.001488
 41
0.001488
  0
VERTEX
  8
0
 10
1.34001
 20
6.22493
 30
0.0
 40
0.001488
 41
0.001488
  0
VERTEX
  8
0
 10
1.35829
 20
6.22206
 30
0.0
 40
0.001488
 41
0.001488
  0
VERTEX
  8
0
 10
1.37652
 20
6.22493
 30
0.0
 40
0.001488
 41
0.001488
  0
VERTEX
  8
0
 10
1.39301
 20
6.23329
 30
0.0
 40
0.001488
 41
0.001488
  0
VERTEX
  8
0
 10
1.40614
 20
6.24642
 30
0.0
 40
0.001488
 41
0.001488
  0
VERTEX
  8
0
 10
1.41456
 20
6.26292
 30
0.0
 40
0.001488
 41
0.001488
  0
SEQEND
 8
0
  0
POLYLINE
  8
0
 62
     5
 66
     1
 10
0
 20
0
 30
0.0
 70
     1
 40
0.107136
 41
0.107136
  0
VERTEX
  8
0
 10
1.41456
 20
3.97944
 30
0.0
 40
0.001488
 41
0.001488
  0
VERTEX
  8
0
 10
1.41743
 20
3.99772
 30
0.0
 40
0.001488
 41
0.001488
  0
VERTEX
  8
0
 10
1.41456
 20
4.01594
 30
0.0
 40
0.001488
 41
0.001488
  0
VERTEX
  8
0
 10
1.40804
 20
4.02869
 30
0.0
 40
0.001488
 41
0.001488
  0
VERTEX
  8
0
 10
1.40614
 20
4.03244
 30
0.0
 40
0.001488
 41
0.001488
  0
VERTEX
  8
0
 10
1.39301
 20
4.04557
 30
0.0
 40
0.001488
 41
0.001488
  0
VERTEX
  8
0
 10
1.37652
 20
4.05399
 30
0.0
 40
0.001488
 41
0.001488
  0
VERTEX
  8
0
 10
1.35829
 20
4.05686
 30
0.0
 40
0.001488
 41
0.001488
  0
VERTEX
  8
0
 10
1.34001
 20
4.05399
 30
0.0
 40
0.001488
 41
0.001488
  0
VERTEX
  8
0
 10
1.32351
 20
4.04557
 30
0.0
 40
0.001488
 41
0.001488
  0
VERTEX
  8
0
 10
1.31038
 20
4.03244
 30
0.0
 40
0.001488
 41
0.001488
  0
VERTEX
  8
0
 10
1.30848
 20
4.02869
 30
0.0
 40
0.001488
 41
0.001488
  0
VERTEX
  8
0
 10
1.30203
 20
4.01594
 30
0.0
 40
0.001488
 41
0.001488
  0
VERTEX
  8
0
 10
1.2991
 20
3.99772
 30
0.0
 40
0.001488
 41
0.001488
  0
VERTEX
  8
0
 10
1.30203
 20
3.97944
 30
0.0
 40
0.001488
 41
0.001488
  0
VERTEX
  8
0
 10
1.31038
 20
3.96294
 30
0.0
 40
0.001488
 41
0.001488
  0
VERTEX
  8
0
 10
1.32351
 20
3.94982
 30
0.0
 40
0.001488
 41
0.001488
  0
VERTEX
  8
0
 10
1.34001
 20
3.94146
 30
0.0
 40
0.001488
 41
0.001488
  0
VERTEX
  8
0
 10
1.35829
 20
3.93858
 30
0.0
 40
0.001488
 41
0.001488
  0
VERTEX
  8
0
 10
1.37652
 20
3.94146
 30
0.0
 40
0.001488
 41
0.001488
  0
VERTEX
  8
0
 10
1.39301
 20
3.94982
 30
0.0
 40
0.001488
 41
0.001488
  0
VERTEX
  8
0
 10
1.40614
 20
3.96294
 30
0.0
 40
0.001488
 41
0.001488
  0
VERTEX
  8
0
 10
1.41456
 20
3.97944
 30
0.0
 40
0.001488
 41
0.001488
  0
SEQEND
 8
0
  0
POLYLINE
  8
0
 62
     5
 66
     1
 10
0
 20
0
 30
0.0
 70
     1
 40
0.107136
 41
0.107136
  0
VERTEX
  8
0
 10
0.389919
 20
0.636231
 30
0.0
 40
0.001488
 41
0.001488
  0
VERTEX
  8
0
 10
0.386882
 20
0.642253
 30
0.0
 40
0.001488
 41
0.001488
  0
VERTEX
  8
0
 10
0.378743
 20
0.658203
 30
0.0
 40
0.001488
 41
0.001488
  0
VERTEX
  8
0
 10
0.361274
 20
0.675672
 30
0.0
 40
0.001488
 41
0.001488
  0
VERTEX
  8
0
 10
0.339356
 20
0.686849
 30
0.0
 40
0.001488
 41
0.001488
  0
VERTEX
  8
0
 10
0.314942
 20
0.690701
 30
0.0
 40
0.001488
 41
0.001488
  0
VERTEX
  8
0
 10
0.290582
 20
0.686849
 30
0.0
 40
0.001488
 41
0.001488
  0
VERTEX
  8
0
 10
0.268608
 20
0.675672
 30
0.0
 40
0.001488
 41
0.001488
  0
VERTEX
  8
0
 10
0.251193
 20
0.658203
 30
0.0
 40
0.001488
 41
0.001488
  0
VERTEX
  8
0
 10
0.243056
 20
0.642253
 30
0.0
 40
0.001488
 41
0.001488
  0
VERTEX
  8
0
 10
0.240018
 20
0.636231
 30
0.0
 40
0.001488
 41
0.001488
  0
VERTEX
  8
0
 10
0.236111
 20
0.611871
 30
0.0
 40
0.001488
 41
0.001488
  0
VERTEX
  8
0
 10
0.240018
 20
0.587511
 30
0.0
 40
0.001488
 41
0.001488
  0
VERTEX
  8
0
 10
0.251193
 20
0.565539
 30
0.0
 40
0.001488
 41
0.001488
  0
VERTEX
  8
0
 10
0.268608
 20
0.548122
 30
0.0
 40
0.001488
 41
0.001488
  0
VERTEX
  8
0
 10
0.290582
 20
0.536893
 30
0.0
 40
0.001488
 41
0.001488
  0
VERTEX
  8
0
 10
0.314942
 20
0.53304
 30
0.0
 40
0.001488
 41
0.001488
  0
VERTEX
  8
0
 10
0.339356
 20
0.536893
 30
0.0
 40
0.001488
 41
0.001488
  0
VERTEX
  8
0
 10
0.361274
 20
0.548122
 30
0.0
 40
0.001488
 41
0.001488
  0
VERTEX
  8
0
 10
0.378743
 20
0.565539
 30
0.0
 40
0.001488
 41
0.001488
  0
VERTEX
  8
0
 10
0.389919
 20
0.587511
 30
0.0
 40
0.001488
 41
0.001488
  0
VERTEX
  8
0
 10
0.393772
 20
0.611871
 30
0.0
 40
0.001488
 41
0.001488
  0
VERTEX
  8
0
 10
0.389919
 20
0.636231
 30
0.0
 40
0.001488
 41
0.001488
  0
SEQEND
 8
0
  0
POLYLINE
  8
0
 62
     5
 66
     1
 10
0
 20
0
 30
0.0
 70
     1
 40
0.107136
 41
0.107136
  0
VERTEX
  8
0
 10
4.26785
 20
5.82374
 30
0.0
 40
0.001488
 41
0.001488
  0
VERTEX
  8
0
 10
4.27175
 20
5.8481
 30
0.0
 40
0.001488
 41
0.001488
  0
VERTEX
  8
0
 10
4.26785
 20
5.87244
 30
0.0
 40
0.001488
 41
0.001488
  0
VERTEX
  8
0
 10
4.25667
 20
5.89442
 30
0.0
 40
0.001488
 41
0.001488
  0
VERTEX
  8
0
 10
4.23926
 20
5.91189
 30
0.0
 40
0.001488
 41
0.001488
  0
VERTEX
  8
0
 10
4.21729
 20
5.92307
 30
0.0
 40
0.001488
 41
0.001488
  0
VERTEX
  8
0
 10
4.19293
 20
5.92697
 30
0.0
 40
0.001488
 41
0.001488
  0
VERTEX
  8
0
 10
4.16857
 20
5.92307
 30
0.0
 40
0.001488
 41
0.001488
  0
VERTEX
  8
0
 10
4.1466
 20
5.91189
 30
0.0
 40
0.001488
 41
0.001488
  0
VERTEX
  8
0
 10
4.12912
 20
5.89442
 30
0.0
 40
0.001488
 41
0.001488
  0
VERTEX
  8
0
 10
4.11794
 20
5.87244
 30
0.0
 40
0.001488
 41
0.001488
  0
VERTEX
  8
0
 10
4.1141
 20
5.8481
 30
0.0
 40
0.001488
 41
0.001488
  0
VERTEX
  8
0
 10
4.11794
 20
5.82374
 30
0.0
 40
0.001488
 41
0.001488
  0
VERTEX
  8
0
 10
4.12869
 20
5.80257
 30
0.0
 40
0.001488
 41
0.001488
  0
VERTEX
  8
0
 10
4.12912
 20
5.80176
 30
0.0
 40
0.001488
 41
0.001488
  0
VERTEX
  8
0
 10
4.1466
 20
5.78435
 30
0.0
 40
0.001488
 41
0.001488
  0
VERTEX
  8
0
 10
4.16857
 20
5.77311
 30
0.0
 40
0.001488
 41
0.001488
  0
VERTEX
  8
0
 10
4.19293
 20
5.76926
 30
0.0
 40
0.001488
 41
0.001488
  0
VERTEX
  8
0
 10
4.21729
 20
5.77311
 30
0.0
 40
0.001488
 41
0.001488
  0
VERTEX
  8
0
 10
4.23926
 20
5.78435
 30
0.0
 40
0.001488
 41
0.001488
  0
VERTEX
  8
0
 10
4.25667
 20
5.80176
 30
0.0
 40
0.001488
 41
0.001488
  0
VERTEX
  8
0
 10
4.25711
 20
5.80257
 30
0.0
 40
0.001488
 41
0.001488
  0
VERTEX
  8
0
 10
4.26785
 20
5.82374
 30
0.0
 40
0.001488
 41
0.001488
  0
SEQEND
 8
0
  0
POLYLINE
  8
0
 62
     5
 66
     1
 10
0
 20
0
 30
0.0
 70
     1
 40
0.107136
 41
0.107136
  0
VERTEX
  8
0
 10
0.378743
 20
5.80176
 30
0.0
 40
0.001488
 41
0.001488
  0
VERTEX
  8
0
 10
0.379178
 20
5.80257
 30
0.0
 40
0.001488
 41
0.001488
  0
VERTEX
  8
0
 10
0.389919
 20
5.82374
 30
0.0
 40
0.001488
 41
0.001488
  0
VERTEX
  8
0
 10
0.393772
 20
5.8481
 30
0.0
 40
0.001488
 41
0.001488
  0
VERTEX
  8
0
 10
0.389919
 20
5.87244
 30
0.0
 40
0.001488
 41
0.001488
  0
VERTEX
  8
0
 10
0.378743
 20
5.89442
 30
0.0
 40
0.001488
 41
0.001488
  0
VERTEX
  8
0
 10
0.361274
 20
5.91189
 30
0.0
 40
0.001488
 41
0.001488
  0
VERTEX
  8
0
 10
0.339356
 20
5.92307
 30
0.0
 40
0.001488
 41
0.001488
  0
VERTEX
  8
0
 10
0.314942
 20
5.92697
 30
0.0
 40
0.001488
 41
0.001488
  0
VERTEX
  8
0
 10
0.290582
 20
5.92307
 30
0.0
 40
0.001488
 41
0.001488
  0
VERTEX
  8
0
 10
0.268608
 20
5.91189
 30
0.0
 40
0.001488
 41
0.001488
  0
VERTEX
  8
0
 10
0.251193
 20
5.89442
 30
0.0
 40
0.001488
 41
0.001488
  0
VERTEX
  8
0
 10
0.240018
 20
5.87244
 30
0.0
 40
0.001488
 41
0.001488
  0
VERTEX
  8
0
 10
0.236111
 20
5.8481
 30
0.0
 40
0.001488
 41
0.001488
  0
VERTEX
  8
0
 10
0.240018
 20
5.82374
 30
0.0
 40
0.001488
 41
0.001488
  0
VERTEX
  8
0
 10
0.25076
 20
5.80257
 30
0.0
 40
0.001488
 41
0.001488
  0
VERTEX
  8
0
 10
0.251193
 20
5.80176
 30
0.0
 40
0.001488
 41
0.001488
  0
VERTEX
  8
0
 10
0.268608
 20
5.78435
 30
0.0
 40
0.001488
 41
0.001488
  0
VERTEX
  8
0
 10
0.290582
 20
5.77311
 30
0.0
 40
0.001488
 41
0.001488
  0
VERTEX
  8
0
 10
0.314942
 20
5.76926
 30
0.0
 40
0.001488
 41
0.001488
  0
VERTEX
  8
0
 10
0.339356
 20
5.77311
 30
0.0
 40
0.001488
 41
0.001488
  0
VERTEX
  8
0
 10
0.361274
 20
5.78435
 30
0.0
 40
0.001488
 41
0.001488
  0
VERTEX
  8
0
 10
0.378743
 20
5.80176
 30
0.0
 40
0.001488
 41
0.001488
  0
SEQEND
 8
0
  0
POLYLINE
  8
0
 62
     5
 66
     1
 10
0
 20
0
 30
0.0
 70
     1
 40
0.107136
 41
0.107136
  0
VERTEX
  8
0
 10
3.23113
 20
4.01594
 30
0.0
 40
0.001488
 41
0.001488
  0
VERTEX
  8
0
 10
3.22825
 20
3.99772
 30
0.0
 40
0.001488
 41
0.001488
  0
VERTEX
  8
0
 10
3.23113
 20
3.97944
 30
0.0
 40
0.001488
 41
0.001488
  0
VERTEX
  8
0
 10
3.23953
 20
3.96294
 30
0.0
 40
0.001488
 41
0.001488
  0
VERTEX
  8
0
 10
3.25265
 20
3.94982
 30
0.0
 40
0.001488
 41
0.001488
  0
VERTEX
  8
0
 10
3.26915
 20
3.94146
 30
0.0
 40
0.001488
 41
0.001488
  0
VERTEX
  8
0
 10
3.28737
 20
3.93858
 30
0.0
 40
0.001488
 41
0.001488
  0
VERTEX
  8
0
 10
3.30567
 20
3.94146
 30
0.0
 40
0.001488
 41
0.001488
  0
VERTEX
  8
0
 10
3.32215
 20
3.94982
 30
0.0
 40
0.001488
 41
0.001488
  0
VERTEX
  8
0
 10
3.33529
 20
3.96294
 30
0.0
 40
0.001488
 41
0.001488
  0
VERTEX
  8
0
 10
3.34364
 20
3.97944
 30
0.0
 40
0.001488
 41
0.001488
  0
VERTEX
  8
0
 10
3.34651
 20
3.99772
 30
0.0
 40
0.001488
 41
0.001488
  0
VERTEX
  8
0
 10
3.34364
 20
4.01594
 30
0.0
 40
0.001488
 41
0.001488
  0
VERTEX
  8
0
 10
3.33718
 20
4.02869
 30
0.0
 40
0.001488
 41
0.001488
  0
VERTEX
  8
0
 10
3.33529
 20
4.03244
 30
0.0
 40
0.001488
 41
0.001488
  0
VERTEX
  8
0
 10
3.32215
 20
4.04557
 30
0.0
 40
0.001488
 41
0.001488
  0
VERTEX
  8
0
 10
3.30567
 20
4.05399
 30
0.0
 40
0.001488
 41
0.001488
  0
VERTEX
  8
0
 10
3.28737
 20
4.05686
 30
0.0
 40
0.001488
 41
0.001488
  0
VERTEX
  8
0
 10
3.26915
 20
4.05399
 30
0.0
 40
0.001488
 41
0.001488
  0
VERTEX
  8
0
 10
3.25265
 20
4.04557
 30
0.0
 40
0.001488
 41
0.001488
  0
VERTEX
  8
0
 10
3.23953
 20
4.03244
 30
0.0
 40
0.001488
 41
0.001488
  0
VERTEX
  8
0
 10
3.23762
 20
4.02869
 30
0.0
 40
0.001488
 41
0.001488
  0
VERTEX
  8
0
 10
3.23113
 20
4.01594
 30
0.0
 40
0.001488
 41
0.001488
  0
SEQEND
 8
0
  0
POLYLINE
  8
0
 62
     5
 66
     1
 10
0
 20
0
 30
0.0
 70
     1
 40
0.107136
 41
0.107136
  0
VERTEX
  8
0
 10
0.239583
 20
5.31879
 30
0.0
 40
0.001488
 41
0.001488
  0
VERTEX
  8
0
 10
0.236111
 20
5.29693
 30
0.0
 40
0.001488
 41
0.001488
  0
VERTEX
  8
0
 10
0.240018
 20
5.27257
 30
0.0
 40
0.001488
 41
0.001488
  0
VERTEX
  8
0
 10
0.251193
 20
5.2506
 30
0.0
 40
0.001488
 41
0.001488
  0
VERTEX
  8
0
 10
0.268608
 20
5.23313
 30
0.0
 40
0.001488
 41
0.001488
  0
VERTEX
  8
0
 10
0.290582
 20
5.22194
 30
0.0
 40
0.001488
 41
0.001488
  0
VERTEX
  8
0
 10
0.314942
 20
5.2181
 30
0.0
 40
0.001488
 41
0.001488
  0
VERTEX
  8
0
 10
0.339356
 20
5.22194
 30
0.0
 40
0.001488
 41
0.001488
  0
VERTEX
  8
0
 10
0.361274
 20
5.23313
 30
0.0
 40
0.001488
 41
0.001488
  0
VERTEX
  8
0
 10
0.378743
 20
5.2506
 30
0.0
 40
0.001488
 41
0.001488
  0
VERTEX
  8
0
 10
0.389919
 20
5.27257
 30
0.0
 40
0.001488
 41
0.001488
  0
VERTEX
  8
0
 10
0.393772
 20
5.29693
 30
0.0
 40
0.001488
 41
0.001488
  0
VERTEX
  8
0
 10
0.3903
 20
5.31879
 30
0.0
 40
0.001488
 41
0.001488
  0
VERTEX
  8
0
 10
0.389919
 20
5.32129
 30
0.0
 40
0.001488
 41
0.001488
  0
VERTEX
  8
0
 10
0.378743
 20
5.34326
 30
0.0
 40
0.001488
 41
0.001488
  0
VERTEX
  8
0
 10
0.361274
 20
5.36068
 30
0.0
 40
0.001488
 41
0.001488
  0
VERTEX
  8
0
 10
0.339356
 20
5.37185
 30
0.0
 40
0.001488
 41
0.001488
  0
VERTEX
  8
0
 10
0.314942
 20
5.37576
 30
0.0
 40
0.001488
 41
0.001488
  0
VERTEX
  8
0
 10
0.290582
 20
5.37185
 30
0.0
 40
0.001488
 41
0.001488
  0
VERTEX
  8
0
 10
0.268608
 20
5.36068
 30
0.0
 40
0.001488
 41
0.001488
  0
VERTEX
  8
0
 10
0.251193
 20
5.34326
 30
0.0
 40
0.001488
 41
0.001488
  0
VERTEX
  8
0
 10
0.240018
 20
5.32129
 30
0.0
 40
0.001488
 41
0.001488
  0
VERTEX
  8
0
 10
0.239583
 20
5.31879
 30
0.0
 40
0.001488
 41
0.001488
  0
SEQEND
 8
0
  0
ENDSEC
  0
EOF
