  0
SECTION
  2
HEADER
  9
$ACADVER
  1
AC1009
  9
$EXTMIN
 10
0.0
 20
0.0
 30
0.0
  9
$EXTMAX
 10
1000.0
 20
1000.0
 30
0.0
  9
$FILLMODE
 70
 0
  9
$SPLFRAME
 70
 1
  0
ENDSEC
  0
SECTION
  2
TABLES
  0
TABLE
  2
LAYER
 70
1
  0
LAYER
  2
0
 70
     0
 62
     7
  6
CONTINUOUS
  0
ENDTAB
  0
ENDSEC
  0
SECTION
  2
ENTITIES
  0
POLYLINE
  8
0
 62
     5
 66
     1
 10
0
 20
0
 30
0.0
 70
     1
 40
0.107136
 41
0.107136
  0
VERTEX
  8
0
 10
0.767796
 20
0.0488824
 30
0.0
 40
0.001488
 41
0.001488
  0
VERTEX
  8
0
 10
0.767796
 20
0.42296
 30
0.0
 40
0.001488
 41
0.001488
  0
VERTEX
  8
0
 10
0.0393881
 20
0.42296
 30
0.0
 40
0.001488
 41
0.001488
  0
VERTEX
  8
0
 10
0.0393881
 20
6.04486
 30
0.0
 40
0.001488
 41
0.001488
  0
VERTEX
  8
0
 10
0.767796
 20
6.04486
 30
0.0
 40
0.001488
 41
0.001488
  0
VERTEX
  8
0
 10
0.767796
 20
6.41894
 30
0.0
 40
0.001488
 41
0.001488
  0
VERTEX
  8
0
 10
3.71246
 20
6.41894
 30
0.0
 40
0.001488
 41
0.001488
  0
VERTEX
  8
0
 10
3.71246
 20
6.04486
 30
0.0
 40
0.001488
 41
0.001488
  0
VERTEX
  8
0
 10
4.44092
 20
6.04486
 30
0.0
 40
0.001488
 41
0.001488
  0
VERTEX
  8
0
 10
4.44092
 20
0.42296
 30
0.0
 40
0.001488
 41
0.001488
  0
VERTEX
  8
0
 10
3.71246
 20
0.42296
 30
0.0
 40
0.001488
 41
0.001488
  0
VERTEX
  8
0
 10
3.71246
 20
0.0488824
 30
0.0
 40
0.001488
 41
0.001488
  0
VERTEX
  8
0
 10
0.767796
 20
0.0488824
 30
0.0
 40
0.001488
 41
0.001488
  0
SEQEND
 8
0
  0
POLYLINE
  8
0
 62
     5
 66
     1
 10
0
 20
0
 30
0.0
 70
     1
 40
0.107136
 41
0.107136
  0
VERTEX
  8
0
 10
3.26129
 20
3.86268
 30
0.0
 40
0.001488
 41
0.001488
  0
VERTEX
  8
0
 10
3.27951
 20
3.85981
 30
0.0
 40
0.001488
 41
0.001488
  0
VERTEX
  8
0
 10
3.29779
 20
3.86268
 30
0.0
 40
0.001488
 41
0.001488
  0
VERTEX
  8
0
 10
3.31429
 20
3.8711
 30
0.0
 40
0.001488
 41
0.001488
  0
VERTEX
  8
0
 10
3.32742
 20
3.88422
 30
0.0
 40
0.001488
 41
0.001488
  0
VERTEX
  8
0
 10
3.33578
 20
3.90072
 30
0.0
 40
0.001488
 41
0.001488
  0
VERTEX
  8
0
 10
3.33865
 20
3.91894
 30
0.0
 40
0.001488
 41
0.001488
  0
VERTEX
  8
0
 10
3.33578
 20
3.93722
 30
0.0
 40
0.001488
 41
0.001488
  0
VERTEX
  8
0
 10
3.32742
 20
3.95372
 30
0.0
 40
0.001488
 41
0.001488
  0
VERTEX
  8
0
 10
3.31429
 20
3.96685
 30
0.0
 40
0.001488
 41
0.001488
  0
VERTEX
  8
0
 10
3.29779
 20
3.97521
 30
0.0
 40
0.001488
 41
0.001488
  0
VERTEX
  8
0
 10
3.28597
 20
3.97711
 30
0.0
 40
0.001488
 41
0.001488
  0
VERTEX
  8
0
 10
3.27951
 20
3.97814
 30
0.0
 40
0.001488
 41
0.001488
  0
VERTEX
  8
0
 10
3.26129
 20
3.97521
 30
0.0
 40
0.001488
 41
0.001488
  0
VERTEX
  8
0
 10
3.24474
 20
3.96685
 30
0.0
 40
0.001488
 41
0.001488
  0
VERTEX
  8
0
 10
3.23167
 20
3.95372
 30
0.0
 40
0.001488
 41
0.001488
  0
VERTEX
  8
0
 10
3.22325
 20
3.93722
 30
0.0
 40
0.001488
 41
0.001488
  0
VERTEX
  8
0
 10
3.22038
 20
3.91894
 30
0.0
 40
0.001488
 41
0.001488
  0
VERTEX
  8
0
 10
3.22325
 20
3.90072
 30
0.0
 40
0.001488
 41
0.001488
  0
VERTEX
  8
0
 10
3.23167
 20
3.88422
 30
0.0
 40
0.001488
 41
0.001488
  0
VERTEX
  8
0
 10
3.2405
 20
3.87532
 30
0.0
 40
0.001488
 41
0.001488
  0
VERTEX
  8
0
 10
3.24474
 20
3.8711
 30
0.0
 40
0.001488
 41
0.001488
  0
VERTEX
  8
0
 10
3.26129
 20
3.86268
 30
0.0
 40
0.001488
 41
0.001488
  0
SEQEND
 8
0
  0
POLYLINE
  8
0
 62
     5
 66
     1
 10
0
 20
0
 30
0.0
 70
     1
 40
0.107136
 41
0.107136
  0
VERTEX
  8
0
 10
4.03618
 20
0.694715
 30
0.0
 40
0.001488
 41
0.001488
  0
VERTEX
  8
0
 10
4.01183
 20
0.698568
 30
0.0
 40
0.001488
 41
0.001488
  0
VERTEX
  8
0
 10
4.01167
 20
0.698568
 30
0.0
 40
0.001488
 41
0.001488
  0
VERTEX
  8
0
 10
3.98747
 20
0.694715
 30
0.0
 40
0.001488
 41
0.001488
  0
VERTEX
  8
0
 10
3.9655
 20
0.683539
 30
0.0
 40
0.001488
 41
0.001488
  0
VERTEX
  8
0
 10
3.94803
 20
0.666069
 30
0.0
 40
0.001488
 41
0.001488
  0
VERTEX
  8
0
 10
3.93685
 20
0.644097
 30
0.0
 40
0.001488
 41
0.001488
  0
VERTEX
  8
0
 10
3.93294
 20
0.619738
 30
0.0
 40
0.001488
 41
0.001488
  0
VERTEX
  8
0
 10
3.93685
 20
0.595378
 30
0.0
 40
0.001488
 41
0.001488
  0
VERTEX
  8
0
 10
3.94803
 20
0.573406
 30
0.0
 40
0.001488
 41
0.001488
  0
VERTEX
  8
0
 10
3.9655
 20
0.55599
 30
0.0
 40
0.001488
 41
0.001488
  0
VERTEX
  8
0
 10
3.98747
 20
0.544814
 30
0.0
 40
0.001488
 41
0.001488
  0
VERTEX
  8
0
 10
4.01167
 20
0.540907
 30
0.0
 40
0.001488
 41
0.001488
  0
VERTEX
  8
0
 10
4.01183
 20
0.540907
 30
0.0
 40
0.001488
 41
0.001488
  0
VERTEX
  8
0
 10
4.03618
 20
0.544814
 30
0.0
 40
0.001488
 41
0.001488
  0
VERTEX
  8
0
 10
4.05817
 20
0.55599
 30
0.0
 40
0.001488
 41
0.001488
  0
VERTEX
  8
0
 10
4.07557
 20
0.573406
 30
0.0
 40
0.001488
 41
0.001488
  0
VERTEX
  8
0
 10
4.08675
 20
0.595378
 30
0.0
 40
0.001488
 41
0.001488
  0
VERTEX
  8
0
 10
4.09065
 20
0.619738
 30
0.0
 40
0.001488
 41
0.001488
  0
VERTEX
  8
0
 10
4.08675
 20
0.644097
 30
0.0
 40
0.001488
 41
0.001488
  0
VERTEX
  8
0
 10
4.07557
 20
0.666069
 30
0.0
 40
0.001488
 41
0.001488
  0
VERTEX
  8
0
 10
4.05817
 20
0.683539
 30
0.0
 40
0.001488
 41
0.001488
  0
VERTEX
  8
0
 10
4.03618
 20
0.694715
 30
0.0
 40
0.001488
 41
0.001488
  0
SEQEND
 8
0
  0
POLYLINE
  8
0
 62
     5
 66
     1
 10
0
 20
0
 30
0.0
 70
     1
 40
0.107136
 41
0.107136
  0
VERTEX
  8
0
 10
0.492893
 20
5.93093
 30
0.0
 40
0.001488
 41
0.001488
  0
VERTEX
  8
0
 10
0.468479
 20
5.93485
 30
0.0
 40
0.001488
 41
0.001488
  0
VERTEX
  8
0
 10
0.444119
 20
5.93093
 30
0.0
 40
0.001488
 41
0.001488
  0
VERTEX
  8
0
 10
0.422146
 20
5.91976
 30
0.0
 40
0.001488
 41
0.001488
  0
VERTEX
  8
0
 10
0.404731
 20
5.90229
 30
0.0
 40
0.001488
 41
0.001488
  0
VERTEX
  8
0
 10
0.393554
 20
5.88032
 30
0.0
 40
0.001488
 41
0.001488
  0
VERTEX
  8
0
 10
0.389649
 20
5.85596
 30
0.0
 40
0.001488
 41
0.001488
  0
VERTEX
  8
0
 10
0.393554
 20
5.8316
 30
0.0
 40
0.001488
 41
0.001488
  0
VERTEX
  8
0
 10
0.404297
 20
5.81044
 30
0.0
 40
0.001488
 41
0.001488
  0
VERTEX
  8
0
 10
0.404731
 20
5.80963
 30
0.0
 40
0.001488
 41
0.001488
  0
VERTEX
  8
0
 10
0.422146
 20
5.79221
 30
0.0
 40
0.001488
 41
0.001488
  0
VERTEX
  8
0
 10
0.444119
 20
5.78103
 30
0.0
 40
0.001488
 41
0.001488
  0
VERTEX
  8
0
 10
0.468479
 20
5.77713
 30
0.0
 40
0.001488
 41
0.001488
  0
VERTEX
  8
0
 10
0.492893
 20
5.78103
 30
0.0
 40
0.001488
 41
0.001488
  0
VERTEX
  8
0
 10
0.514865
 20
5.79221
 30
0.0
 40
0.001488
 41
0.001488
  0
VERTEX
  8
0
 10
0.532281
 20
5.80963
 30
0.0
 40
0.001488
 41
0.001488
  0
VERTEX
  8
0
 10
0.532715
 20
5.81044
 30
0.0
 40
0.001488
 41
0.001488
  0
VERTEX
  8
0
 10
0.543457
 20
5.8316
 30
0.0
 40
0.001488
 41
0.001488
  0
VERTEX
  8
0
 10
0.54731
 20
5.85596
 30
0.0
 40
0.001488
 41
0.001488
  0
VERTEX
  8
0
 10
0.543457
 20
5.88032
 30
0.0
 40
0.001488
 41
0.001488
  0
VERTEX
  8
0
 10
0.532281
 20
5.90229
 30
0.0
 40
0.001488
 41
0.001488
  0
VERTEX
  8
0
 10
0.514865
 20
5.91976
 30
0.0
 40
0.001488
 41
0.001488
  0
VERTEX
  8
0
 10
0.492893
 20
5.93093
 30
0.0
 40
0.001488
 41
0.001488
  0
SEQEND
 8
0
  0
POLYLINE
  8
0
 62
     5
 66
     1
 10
0
 20
0
 30
0.0
 70
     1
 40
0.107136
 41
0.107136
  0
VERTEX
  8
0
 10
4.03618
 20
5.37978
 30
0.0
 40
0.001488
 41
0.001488
  0
VERTEX
  8
0
 10
4.01183
 20
5.38363
 30
0.0
 40
0.001488
 41
0.001488
  0
VERTEX
  8
0
 10
4.01167
 20
5.38363
 30
0.0
 40
0.001488
 41
0.001488
  0
VERTEX
  8
0
 10
3.98747
 20
5.37978
 30
0.0
 40
0.001488
 41
0.001488
  0
VERTEX
  8
0
 10
3.9655
 20
5.36854
 30
0.0
 40
0.001488
 41
0.001488
  0
VERTEX
  8
0
 10
3.94803
 20
5.35113
 30
0.0
 40
0.001488
 41
0.001488
  0
VERTEX
  8
0
 10
3.93685
 20
5.32915
 30
0.0
 40
0.001488
 41
0.001488
  0
VERTEX
  8
0
 10
3.93294
 20
5.30479
 30
0.0
 40
0.001488
 41
0.001488
  0
VERTEX
  8
0
 10
3.93685
 20
5.28043
 30
0.0
 40
0.001488
 41
0.001488
  0
VERTEX
  8
0
 10
3.94803
 20
5.25846
 30
0.0
 40
0.001488
 41
0.001488
  0
VERTEX
  8
0
 10
3.9655
 20
5.241
 30
0.0
 40
0.001488
 41
0.001488
  0
VERTEX
  8
0
 10
3.98747
 20
5.22982
 30
0.0
 40
0.001488
 41
0.001488
  0
VERTEX
  8
0
 10
4.01167
 20
5.22601
 30
0.0
 40
0.001488
 41
0.001488
  0
VERTEX
  8
0
 10
4.01183
 20
5.22597
 30
0.0
 40
0.001488
 41
0.001488
  0
VERTEX
  8
0
 10
4.03618
 20
5.22982
 30
0.0
 40
0.001488
 41
0.001488
  0
VERTEX
  8
0
 10
4.05817
 20
5.241
 30
0.0
 40
0.001488
 41
0.001488
  0
VERTEX
  8
0
 10
4.07557
 20
5.25846
 30
0.0
 40
0.001488
 41
0.001488
  0
VERTEX
  8
0
 10
4.08675
 20
5.28043
 30
0.0
 40
0.001488
 41
0.001488
  0
VERTEX
  8
0
 10
4.09065
 20
5.30479
 30
0.0
 40
0.001488
 41
0.001488
  0
VERTEX
  8
0
 10
4.08675
 20
5.32915
 30
0.0
 40
0.001488
 41
0.001488
  0
VERTEX
  8
0
 10
4.07557
 20
5.35113
 30
0.0
 40
0.001488
 41
0.001488
  0
VERTEX
  8
0
 10
4.05817
 20
5.36854
 30
0.0
 40
0.001488
 41
0.001488
  0
VERTEX
  8
0
 10
4.03618
 20
5.37978
 30
0.0
 40
0.001488
 41
0.001488
  0
SEQEND
 8
0
  0
POLYLINE
  8
0
 62
     5
 66
     1
 10
0
 20
0
 30
0.0
 70
     1
 40
0.107136
 41
0.107136
  0
VERTEX
  8
0
 10
1.38515
 20
3.8711
 30
0.0
 40
0.001488
 41
0.001488
  0
VERTEX
  8
0
 10
1.38943
 20
3.87532
 30
0.0
 40
0.001488
 41
0.001488
  0
VERTEX
  8
0
 10
1.39828
 20
3.88422
 30
0.0
 40
0.001488
 41
0.001488
  0
VERTEX
  8
0
 10
1.40663
 20
3.90072
 30
0.0
 40
0.001488
 41
0.001488
  0
VERTEX
  8
0
 10
1.4095
 20
3.91894
 30
0.0
 40
0.001488
 41
0.001488
  0
VERTEX
  8
0
 10
1.40663
 20
3.93722
 30
0.0
 40
0.001488
 41
0.001488
  0
VERTEX
  8
0
 10
1.39828
 20
3.95372
 30
0.0
 40
0.001488
 41
0.001488
  0
VERTEX
  8
0
 10
1.38515
 20
3.96685
 30
0.0
 40
0.001488
 41
0.001488
  0
VERTEX
  8
0
 10
1.36865
 20
3.97521
 30
0.0
 40
0.001488
 41
0.001488
  0
VERTEX
  8
0
 10
1.35086
 20
3.97808
 30
0.0
 40
0.001488
 41
0.001488
  0
VERTEX
  8
0
 10
1.35037
 20
3.97814
 30
0.0
 40
0.001488
 41
0.001488
  0
VERTEX
  8
0
 10
1.33214
 20
3.97521
 30
0.0
 40
0.001488
 41
0.001488
  0
VERTEX
  8
0
 10
1.31565
 20
3.96685
 30
0.0
 40
0.001488
 41
0.001488
  0
VERTEX
  8
0
 10
1.30252
 20
3.95372
 30
0.0
 40
0.001488
 41
0.001488
  0
VERTEX
  8
0
 10
1.29411
 20
3.93722
 30
0.0
 40
0.001488
 41
0.001488
  0
VERTEX
  8
0
 10
1.29123
 20
3.91894
 30
0.0
 40
0.001488
 41
0.001488
  0
VERTEX
  8
0
 10
1.29411
 20
3.90072
 30
0.0
 40
0.001488
 41
0.001488
  0
VERTEX
  8
0
 10
1.30252
 20
3.88422
 30
0.0
 40
0.001488
 41
0.001488
  0
VERTEX
  8
0
 10
1.31136
 20
3.87532
 30
0.0
 40
0.001488
 41
0.001488
  0
VERTEX
  8
0
 10
1.31565
 20
3.8711
 30
0.0
 40
0.001488
 41
0.001488
  0
VERTEX
  8
0
 10
1.33214
 20
3.86268
 30
0.0
 40
0.001488
 41
0.001488
  0
VERTEX
  8
0
 10
1.35037
 20
3.85981
 30
0.0
 40
0.001488
 41
0.001488
  0
VERTEX
  8
0
 10
1.36865
 20
3.86268
 30
0.0
 40
0.001488
 41
0.001488
  0
VERTEX
  8
0
 10
1.38515
 20
3.8711
 30
0.0
 40
0.001488
 41
0.001488
  0
SEQEND
 8
0
  0
POLYLINE
  8
0
 62
     5
 66
     1
 10
0
 20
0
 30
0.0
 70
     1
 40
0.107136
 41
0.107136
  0
VERTEX
  8
0
 10
4.03618
 20
5.93093
 30
0.0
 40
0.001488
 41
0.001488
  0
VERTEX
  8
0
 10
4.01183
 20
5.93485
 30
0.0
 40
0.001488
 41
0.001488
  0
VERTEX
  8
0
 10
4.01167
 20
5.93479
 30
0.0
 40
0.001488
 41
0.001488
  0
VERTEX
  8
0
 10
3.98747
 20
5.93093
 30
0.0
 40
0.001488
 41
0.001488
  0
VERTEX
  8
0
 10
3.9655
 20
5.91976
 30
0.0
 40
0.001488
 41
0.001488
  0
VERTEX
  8
0
 10
3.94803
 20
5.90229
 30
0.0
 40
0.001488
 41
0.001488
  0
VERTEX
  8
0
 10
3.93685
 20
5.88032
 30
0.0
 40
0.001488
 41
0.001488
  0
VERTEX
  8
0
 10
3.93294
 20
5.85596
 30
0.0
 40
0.001488
 41
0.001488
  0
VERTEX
  8
0
 10
3.93685
 20
5.8316
 30
0.0
 40
0.001488
 41
0.001488
  0
VERTEX
  8
0
 10
3.94803
 20
5.80963
 30
0.0
 40
0.001488
 41
0.001488
  0
VERTEX
  8
0
 10
3.9655
 20
5.79221
 30
0.0
 40
0.001488
 41
0.001488
  0
VERTEX
  8
0
 10
3.98747
 20
5.78103
 30
0.0
 40
0.001488
 41
0.001488
  0
VERTEX
  8
0
 10
4.01167
 20
5.77718
 30
0.0
 40
0.001488
 41
0.001488
  0
VERTEX
  8
0
 10
4.01183
 20
5.77713
 30
0.0
 40
0.001488
 41
0.001488
  0
VERTEX
  8
0
 10
4.03618
 20
5.78103
 30
0.0
 40
0.001488
 41
0.001488
  0
VERTEX
  8
0
 10
4.05817
 20
5.79221
 30
0.0
 40
0.001488
 41
0.001488
  0
VERTEX
  8
0
 10
4.07557
 20
5.80963
 30
0.0
 40
0.001488
 41
0.001488
  0
VERTEX
  8
0
 10
4.08675
 20
5.8316
 30
0.0
 40
0.001488
 41
0.001488
  0
VERTEX
  8
0
 10
4.09065
 20
5.85596
 30
0.0
 40
0.001488
 41
0.001488
  0
VERTEX
  8
0
 10
4.08675
 20
5.88032
 30
0.0
 40
0.001488
 41
0.001488
  0
VERTEX
  8
0
 10
4.07557
 20
5.90229
 30
0.0
 40
0.001488
 41
0.001488
  0
VERTEX
  8
0
 10
4.05817
 20
5.91976
 30
0.0
 40
0.001488
 41
0.001488
  0
VERTEX
  8
0
 10
4.03618
 20
5.93093
 30
0.0
 40
0.001488
 41
0.001488
  0
SEQEND
 8
0
  0
POLYLINE
  8
0
 62
     5
 66
     1
 10
0
 20
0
 30
0.0
 70
     1
 40
0.107136
 41
0.107136
  0
VERTEX
  8
0
 10
0.444119
 20
0.544814
 30
0.0
 40
0.001488
 41
0.001488
  0
VERTEX
  8
0
 10
0.468479
 20
0.540907
 30
0.0
 40
0.001488
 41
0.001488
  0
VERTEX
  8
0
 10
0.492893
 20
0.544814
 30
0.0
 40
0.001488
 41
0.001488
  0
VERTEX
  8
0
 10
0.514865
 20
0.55599
 30
0.0
 40
0.001488
 41
0.001488
  0
VERTEX
  8
0
 10
0.532281
 20
0.573406
 30
0.0
 40
0.001488
 41
0.001488
  0
VERTEX
  8
0
 10
0.543457
 20
0.595378
 30
0.0
 40
0.001488
 41
0.001488
  0
VERTEX
  8
0
 10
0.54731
 20
0.619738
 30
0.0
 40
0.001488
 41
0.001488
  0
VERTEX
  8
0
 10
0.543457
 20
0.644097
 30
0.0
 40
0.001488
 41
0.001488
  0
VERTEX
  8
0
 10
0.540419
 20
0.650119
 30
0.0
 40
0.001488
 41
0.001488
  0
VERTEX
  8
0
 10
0.532281
 20
0.666069
 30
0.0
 40
0.001488
 41
0.001488
  0
VERTEX
  8
0
 10
0.514865
 20
0.683539
 30
0.0
 40
0.001488
 41
0.001488
  0
VERTEX
  8
0
 10
0.492893
 20
0.694715
 30
0.0
 40
0.001488
 41
0.001488
  0
VERTEX
  8
0
 10
0.468479
 20
0.698568
 30
0.0
 40
0.001488
 41
0.001488
  0
VERTEX
  8
0
 10
0.444119
 20
0.694715
 30
0.0
 40
0.001488
 41
0.001488
  0
VERTEX
  8
0
 10
0.422146
 20
0.683539
 30
0.0
 40
0.001488
 41
0.001488
  0
VERTEX
  8
0
 10
0.404731
 20
0.666069
 30
0.0
 40
0.001488
 41
0.001488
  0
VERTEX
  8
0
 10
0.396593
 20
0.650119
 30
0.0
 40
0.001488
 41
0.001488
  0
VERTEX
  8
0
 10
0.393554
 20
0.644097
 30
0.0
 40
0.001488
 41
0.001488
  0
VERTEX
  8
0
 10
0.389649
 20
0.619738
 30
0.0
 40
0.001488
 41
0.001488
  0
VERTEX
  8
0
 10
0.393554
 20
0.595378
 30
0.0
 40
0.001488
 41
0.001488
  0
VERTEX
  8
0
 10
0.404731
 20
0.573406
 30
0.0
 40
0.001488
 41
0.001488
  0
VERTEX
  8
0
 10
0.422146
 20
0.55599
 30
0.0
 40
0.001488
 41
0.001488
  0
VERTEX
  8
0
 10
0.444119
 20
0.544814
 30
0.0
 40
0.001488
 41
0.001488
  0
SEQEND
 8
0
  0
POLYLINE
  8
0
 62
     5
 66
     1
 10
0
 20
0
 30
0.0
 70
     1
 40
0.107136
 41
0.107136
  0
VERTEX
  8
0
 10
3.33578
 20
6.18414
 30
0.0
 40
0.001488
 41
0.001488
  0
VERTEX
  8
0
 10
3.33865
 20
6.20242
 30
0.0
 40
0.001488
 41
0.001488
  0
VERTEX
  8
0
 10
3.33692
 20
6.2136
 30
0.0
 40
0.001488
 41
0.001488
  0
VERTEX
  8
0
 10
3.33578
 20
6.22071
 30
0.0
 40
0.001488
 41
0.001488
  0
VERTEX
  8
0
 10
3.32742
 20
6.23719
 30
0.0
 40
0.001488
 41
0.001488
  0
VERTEX
  8
0
 10
3.31429
 20
6.25032
 30
0.0
 40
0.001488
 41
0.001488
  0
VERTEX
  8
0
 10
3.29779
 20
6.25868
 30
0.0
 40
0.001488
 41
0.001488
  0
VERTEX
  8
0
 10
3.27951
 20
6.26161
 30
0.0
 40
0.001488
 41
0.001488
  0
VERTEX
  8
0
 10
3.26129
 20
6.25868
 30
0.0
 40
0.001488
 41
0.001488
  0
VERTEX
  8
0
 10
3.24474
 20
6.25032
 30
0.0
 40
0.001488
 41
0.001488
  0
VERTEX
  8
0
 10
3.23167
 20
6.23719
 30
0.0
 40
0.001488
 41
0.001488
  0
VERTEX
  8
0
 10
3.22325
 20
6.22071
 30
0.0
 40
0.001488
 41
0.001488
  0
VERTEX
  8
0
 10
3.22211
 20
6.2136
 30
0.0
 40
0.001488
 41
0.001488
  0
VERTEX
  8
0
 10
3.22038
 20
6.20242
 30
0.0
 40
0.001488
 41
0.001488
  0
VERTEX
  8
0
 10
3.22325
 20
6.18414
 30
0.0
 40
0.001488
 41
0.001488
  0
VERTEX
  8
0
 10
3.23167
 20
6.16764
 30
0.0
 40
0.001488
 41
0.001488
  0
VERTEX
  8
0
 10
3.24474
 20
6.15457
 30
0.0
 40
0.001488
 41
0.001488
  0
VERTEX
  8
0
 10
3.26129
 20
6.14615
 30
0.0
 40
0.001488
 41
0.001488
  0
VERTEX
  8
0
 10
3.27951
 20
6.14328
 30
0.0
 40
0.001488
 41
0.001488
  0
VERTEX
  8
0
 10
3.29779
 20
6.14615
 30
0.0
 40
0.001488
 41
0.001488
  0
VERTEX
  8
0
 10
3.31429
 20
6.15457
 30
0.0
 40
0.001488
 41
0.001488
  0
VERTEX
  8
0
 10
3.32742
 20
6.16764
 30
0.0
 40
0.001488
 41
0.001488
  0
VERTEX
  8
0
 10
3.33578
 20
6.18414
 30
0.0
 40
0.001488
 41
0.001488
  0
SEQEND
 8
0
  0
POLYLINE
  8
0
 62
     5
 66
     1
 10
0
 20
0
 30
0.0
 70
     1
 40
0.107136
 41
0.107136
  0
VERTEX
  8
0
 10
0.492893
 20
5.37978
 30
0.0
 40
0.001488
 41
0.001488
  0
VERTEX
  8
0
 10
0.468479
 20
5.38363
 30
0.0
 40
0.001488
 41
0.001488
  0
VERTEX
  8
0
 10
0.444119
 20
5.37978
 30
0.0
 40
0.001488
 41
0.001488
  0
VERTEX
  8
0
 10
0.422146
 20
5.36854
 30
0.0
 40
0.001488
 41
0.001488
  0
VERTEX
  8
0
 10
0.404731
 20
5.35113
 30
0.0
 40
0.001488
 41
0.001488
  0
VERTEX
  8
0
 10
0.393554
 20
5.32915
 30
0.0
 40
0.001488
 41
0.001488
  0
VERTEX
  8
0
 10
0.393121
 20
5.32667
 30
0.0
 40
0.001488
 41
0.001488
  0
VERTEX
  8
0
 10
0.389649
 20
5.30479
 30
0.0
 40
0.001488
 41
0.001488
  0
VERTEX
  8
0
 10
0.393554
 20
5.28043
 30
0.0
 40
0.001488
 41
0.001488
  0
VERTEX
  8
0
 10
0.404731
 20
5.25846
 30
0.0
 40
0.001488
 41
0.001488
  0
VERTEX
  8
0
 10
0.422146
 20
5.241
 30
0.0
 40
0.001488
 41
0.001488
  0
VERTEX
  8
0
 10
0.444119
 20
5.22982
 30
0.0
 40
0.001488
 41
0.001488
  0
VERTEX
  8
0
 10
0.468479
 20
5.22597
 30
0.0
 40
0.001488
 41
0.001488
  0
VERTEX
  8
0
 10
0.492893
 20
5.22982
 30
0.0
 40
0.001488
 41
0.001488
  0
VERTEX
  8
0
 10
0.514865
 20
5.241
 30
0.0
 40
0.001488
 41
0.001488
  0
VERTEX
  8
0
 10
0.532281
 20
5.25846
 30
0.0
 40
0.001488
 41
0.001488
  0
VERTEX
  8
0
 10
0.543457
 20
5.28043
 30
0.0
 40
0.001488
 41
0.001488
  0
VERTEX
  8
0
 10
0.54731
 20
5.30479
 30
0.0
 40
0.001488
 41
0.001488
  0
VERTEX
  8
0
 10
0.543837
 20
5.32667
 30
0.0
 40
0.001488
 41
0.001488
  0
VERTEX
  8
0
 10
0.543457
 20
5.32915
 30
0.0
 40
0.001488
 41
0.001488
  0
VERTEX
  8
0
 10
0.532281
 20
5.35113
 30
0.0
 40
0.001488
 41
0.001488
  0
VERTEX
  8
0
 10
0.514865
 20
5.36854
 30
0.0
 40
0.001488
 41
0.001488
  0
VERTEX
  8
0
 10
0.492893
 20
5.37978
 30
0.0
 40
0.001488
 41
0.001488
  0
SEQEND
 8
0
  0
POLYLINE
  8
0
 62
     5
 66
     1
 10
0
 20
0
 30
0.0
 70
     1
 40
0.107136
 41
0.107136
  0
VERTEX
  8
0
 10
1.29302
 20
6.2136
 30
0.0
 40
0.001488
 41
0.001488
  0
VERTEX
  8
0
 10
1.29123
 20
6.20242
 30
0.0
 40
0.001488
 41
0.001488
  0
VERTEX
  8
0
 10
1.29411
 20
6.18414
 30
0.0
 40
0.001488
 41
0.001488
  0
VERTEX
  8
0
 10
1.30252
 20
6.16764
 30
0.0
 40
0.001488
 41
0.001488
  0
VERTEX
  8
0
 10
1.31565
 20
6.15457
 30
0.0
 40
0.001488
 41
0.001488
  0
VERTEX
  8
0
 10
1.33214
 20
6.14615
 30
0.0
 40
0.001488
 41
0.001488
  0
VERTEX
  8
0
 10
1.35037
 20
6.14328
 30
0.0
 40
0.001488
 41
0.001488
  0
VERTEX
  8
0
 10
1.36865
 20
6.14615
 30
0.0
 40
0.001488
 41
0.001488
  0
VERTEX
  8
0
 10
1.38515
 20
6.15457
 30
0.0
 40
0.001488
 41
0.001488
  0
VERTEX
  8
0
 10
1.39828
 20
6.16764
 30
0.0
 40
0.001488
 41
0.001488
  0
VERTEX
  8
0
 10
1.40663
 20
6.18414
 30
0.0
 40
0.001488
 41
0.001488
  0
VERTEX
  8
0
 10
1.4095
 20
6.20242
 30
0.0
 40
0.001488
 41
0.001488
  0
VERTEX
  8
0
 10
1.40776
 20
6.2136
 30
0.0
 40
0.001488
 41
0.001488
  0
VERTEX
  8
0
 10
1.40663
 20
6.22071
 30
0.0
 40
0.001488
 41
0.001488
  0
VERTEX
  8
0
 10
1.39828
 20
6.23719
 30
0.0
 40
0.001488
 41
0.001488
  0
VERTEX
  8
0
 10
1.38515
 20
6.25032
 30
0.0
 40
0.001488
 41
0.001488
  0
VERTEX
  8
0
 10
1.36865
 20
6.25868
 30
0.0
 40
0.001488
 41
0.001488
  0
VERTEX
  8
0
 10
1.35037
 20
6.26161
 30
0.0
 40
0.001488
 41
0.001488
  0
VERTEX
  8
0
 10
1.33214
 20
6.25868
 30
0.0
 40
0.001488
 41
0.001488
  0
VERTEX
  8
0
 10
1.31565
 20
6.25032
 30
0.0
 40
0.001488
 41
0.001488
  0
VERTEX
  8
0
 10
1.30252
 20
6.23719
 30
0.0
 40
0.001488
 41
0.001488
  0
VERTEX
  8
0
 10
1.29411
 20
6.22071
 30
0.0
 40
0.001488
 41
0.001488
  0
VERTEX
  8
0
 10
1.29302
 20
6.2136
 30
0.0
 40
0.001488
 41
0.001488
  0
SEQEND
 8
0
  0
ENDSEC
  0
EOF
